<svg width="186" height="75" viewBox="0 0 186 75" fill="none" xmlns="http://www.w3.org/2000/svg">
<path fill-rule="evenodd" clip-rule="evenodd" d="M54.6254 18.1887C53.2089 19.8765 50.9424 21.2077 48.6759 21.0175C48.3926 18.7355 49.5022 16.3108 50.8007 14.8132C52.2173 13.0778 54.6962 11.8417 56.703 11.7466C56.9391 14.1238 56.0183 16.4534 54.6254 18.1887ZM56.6792 21.4692C54.6825 21.3535 52.8606 22.0738 51.389 22.6557C50.442 23.0301 49.64 23.3472 49.0299 23.3472C48.3452 23.3472 47.5102 23.0131 46.5726 22.6381C45.3441 22.1467 43.9395 21.5849 42.4666 21.6118C39.0905 21.6594 35.9505 23.5849 34.227 26.6514C30.6857 32.7845 33.3063 41.8652 36.7296 46.8572C38.4058 49.3294 40.4126 52.0394 43.0568 51.9443C44.2201 51.9001 45.0569 51.5426 45.9229 51.1726C46.92 50.7466 47.9557 50.3041 49.5729 50.3041C51.1341 50.3041 52.1245 50.7351 53.0753 51.1488C53.9793 51.5422 54.8474 51.9199 56.1362 51.8968C58.8749 51.8492 60.5984 49.4245 62.2746 46.9523C64.0835 44.2989 64.8785 41.7094 64.9991 41.3164L65.0093 41.2834L65.0132 41.2709C65.0104 41.268 64.988 41.2577 64.9486 41.2395C64.3439 40.9608 59.7219 38.8303 59.6776 33.1173C59.6331 28.322 63.3436 25.8924 63.9277 25.51L63.9277 25.51L63.9281 25.5097L63.9283 25.5096C63.9635 25.4865 63.9873 25.471 63.9981 25.4628C61.6372 21.9446 57.9541 21.5643 56.6792 21.4692ZM75.6375 51.6354V14.5756H89.4488C96.5787 14.5756 101.56 19.5201 101.56 26.7466C101.56 33.9731 96.4843 38.9652 89.2599 38.9652H81.3509V51.6354H75.6375ZM81.3505 19.4247H87.9374C92.8953 19.4247 95.7284 22.0871 95.7284 26.7701C95.7284 31.4531 92.8953 34.1393 87.9138 34.1393H81.3505V19.4247ZM120.424 47.1898C118.913 50.0899 115.584 51.9203 111.996 51.9203C106.684 51.9203 102.977 48.7349 102.977 43.9331C102.977 39.1788 106.566 36.4451 113.2 36.0409L120.33 35.6131V33.5687C120.33 30.5497 118.37 28.9095 114.876 28.9095C111.996 28.9095 109.894 30.4071 109.47 32.6892H104.323C104.488 27.8873 108.974 24.3929 115.041 24.3929C121.581 24.3929 125.831 27.8398 125.831 33.1884V51.6351H120.542V47.1898H120.424ZM113.53 47.5228C110.484 47.5228 108.548 46.0489 108.548 43.7906C108.548 41.461 110.414 40.106 113.979 39.8921L120.329 39.488V41.5799C120.329 45.0505 117.402 47.5228 113.53 47.5228ZM143.372 53.0855C141.082 59.5751 138.461 61.7145 132.89 61.7145C132.465 61.7145 131.048 61.667 130.718 61.5719V57.1266C131.072 57.1742 131.945 57.2217 132.394 57.2217C134.92 57.2217 136.336 56.152 137.21 53.3707L137.729 51.7305L128.05 24.7498H134.023L140.751 46.6434H140.869L147.598 24.7498H153.406L143.372 53.0855Z" fill="black"/>
</svg>
