<svg width="187" height="75" viewBox="0 0 187 75" fill="none" xmlns="http://www.w3.org/2000/svg">
<path d="M42.5849 41.0992C40.2306 50.7186 30.6248 56.5835 21.1291 54.1981C11.6334 51.8112 5.84634 42.0787 8.20066 32.4592C10.555 22.8382 20.1608 16.9733 29.6565 19.3602C29.6731 19.3648 29.6882 19.3679 29.7048 19.3725C39.1749 21.7808 44.9362 31.498 42.5849 41.0992Z" fill="#F7931A"/>
<path d="M29.411 34.1653C28.8575 36.4086 25.4806 35.2594 24.3856 34.9844L25.3539 31.0586C26.4338 31.3276 29.9645 31.8441 29.3944 34.1653H29.411ZM28.8077 40.5085C28.2105 42.9535 24.1473 41.6301 22.8291 41.2985L23.897 36.9633C25.2151 37.2995 29.4321 37.9565 28.8062 40.5085H28.8077ZM33.2358 34.1989C33.5842 31.809 31.791 30.5253 29.3612 29.6727L30.1576 26.4361L28.1924 25.9425L27.4171 29.095C26.9074 28.9667 26.3825 28.8429 25.8622 28.7252L26.6374 25.5391L24.6948 25.0455L23.8985 28.2821L22.6587 28.0024L19.9741 27.3239L19.4598 29.4266C19.4598 29.4266 20.8986 29.7628 20.8715 29.7857C21.4205 29.853 21.8217 30.3481 21.7794 30.9074L20.8715 34.5916C20.9394 34.6069 21.0072 34.6298 21.0706 34.6589L20.8655 34.6023L19.597 39.7674C19.4779 40.1448 19.0797 40.3526 18.7057 40.2334C18.7057 40.2609 17.288 39.8804 17.288 39.8804L16.3242 42.1237L18.8535 42.7579L20.2365 43.1231L19.4342 46.3932L21.3767 46.8868L22.1731 43.6503C22.6964 43.7955 23.2122 43.9299 23.7175 44.0537L22.9317 47.3009L24.8743 47.7884L25.6767 44.5244C28.9977 45.1585 31.4833 44.9049 32.5345 41.8655C33.3821 39.4205 32.4908 38.0131 30.7473 37.0932C32.0202 36.7967 32.9613 35.9715 33.2328 34.1989H33.2358Z" fill="white"/>
<path d="M53.7926 49.0951C54.8273 49.0981 55.8453 48.8307 56.7487 48.3203C57.6778 47.8176 58.4967 47.1269 59.1513 46.2895C59.833 45.4047 60.3699 44.4145 60.7395 43.357C61.1301 42.2629 61.3277 41.1092 61.3262 39.9478C61.388 38.7681 61.1391 37.593 60.6067 36.5432C60.1301 35.7302 59.2448 35.3146 57.9613 35.3146C57.4018 35.3344 56.8453 35.4108 56.3008 35.5438C55.6251 35.6966 54.9992 36.0251 54.4849 36.4973L51.5514 48.9255L52.022 49.0156C52.1622 49.0508 52.3055 49.0737 52.4473 49.0828C52.6313 49.1058 52.8153 49.1149 53.0008 49.1104L53.7926 49.0935V49.0951ZM59.6219 29.6682C60.9039 29.6376 62.1753 29.9035 63.3411 30.4429C64.3531 30.9319 65.243 31.6471 65.9428 32.5349C66.6592 33.4533 67.1856 34.5077 67.4932 35.6355C67.8281 36.8793 67.994 38.1645 67.9864 39.4542C67.9849 43.4686 66.4496 47.324 63.7016 50.2167C62.3698 51.6012 60.7847 52.7091 59.0352 53.4808C57.2012 54.2983 55.2164 54.7155 53.212 54.7032H51.7942C51.0235 54.6773 50.2544 54.61 49.4912 54.5015C48.5591 54.364 47.6346 54.1776 46.7236 53.9407C45.7674 53.7115 44.8399 53.3768 43.9561 52.9429L51.7339 19.9326L58.6807 18.811L55.9132 30.527C56.4893 30.2626 57.0881 30.0502 57.7004 29.8928C58.3324 29.737 58.9824 29.659 59.6324 29.6636L59.6219 29.6697V29.6682Z" fill="#4D4D4D"/>
<path d="M78.3912 27.2614C77.4863 27.2706 76.6025 26.9757 75.8786 26.4256C75.1109 25.8097 74.6946 24.847 74.7715 23.8568C74.7685 23.2394 74.8982 22.6282 75.1531 22.0674C75.3974 21.5203 75.7398 21.0267 76.1666 20.6096C76.5919 20.2 77.0851 19.87 77.622 19.6331C78.1816 19.3901 78.7849 19.2663 79.3927 19.2679C80.2916 19.2648 81.1664 19.5613 81.8843 20.1083C82.6504 20.7257 83.0652 21.6869 82.9913 22.6771C82.9958 23.296 82.8676 23.9088 82.6157 24.4711C82.3714 25.0151 82.0306 25.5072 81.6083 25.9228C81.1845 26.3339 80.6913 26.6639 80.1528 26.8993C79.5933 27.1422 78.99 27.2645 78.3822 27.2584H78.3927L78.3912 27.2614ZM75.1637 54.063H68.5215L74.1336 30.171H80.8149L75.1637 54.063Z" fill="#4D4D4D"/>
<path d="M86.6281 24.2219L93.5749 23.1339L91.848 30.1724H99.288L97.9472 35.7133H90.569L88.5993 44.0477C88.4289 44.6864 88.3233 45.3404 88.2841 46.0006C88.2434 46.5339 88.3218 47.0703 88.5103 47.57C88.6959 48.0177 89.0382 48.3799 89.4741 48.5846C90.1 48.8643 90.7832 48.9926 91.4664 48.9544C92.1678 48.9575 92.8661 48.8872 93.5538 48.7466C94.2446 48.6091 94.9263 48.4226 95.5914 48.1858L96.0891 53.3676C95.1359 53.7145 94.1616 54.0018 93.1722 54.2264C91.9506 54.4893 90.7018 54.6115 89.453 54.5916C87.3882 54.5916 85.794 54.2768 84.6538 53.661C83.5875 53.1109 82.7324 52.2154 82.2301 51.1152C81.7385 49.9477 81.5243 48.6794 81.6042 47.4141C81.6781 45.9288 81.8878 44.4526 82.2301 43.0055L86.6311 24.2021V24.225L86.6281 24.2219Z" fill="#4D4D4D"/>
<path d="M99.0433 44.5245C99.0297 42.5425 99.363 40.5728 100.028 38.7085C100.653 36.9466 101.612 35.3253 102.852 33.9362C104.1 32.5594 105.621 31.4622 107.313 30.7165C109.159 29.9096 111.153 29.5062 113.163 29.5337C114.377 29.5184 115.588 29.6483 116.772 29.9203C117.768 30.1587 118.736 30.501 119.662 30.9411L117.355 36.1963C116.757 35.9503 116.136 35.7379 115.495 35.5407C114.729 35.3253 113.937 35.2244 113.142 35.2443C111.135 35.1709 109.204 36.0297 107.9 37.5777C106.604 39.1211 105.954 41.1963 105.951 43.8032C105.891 45.125 106.234 46.4331 106.936 47.5502C107.592 48.5037 108.803 48.9789 110.568 48.9789C111.412 48.9789 112.255 48.8873 113.08 48.7039C113.816 48.545 114.537 48.3173 115.234 48.0254L115.727 53.4319C114.822 53.7787 113.898 54.0752 112.96 54.3166C111.768 54.5886 110.549 54.717 109.328 54.6987C107.706 54.746 106.094 54.4694 104.578 53.8857C103.373 53.3937 102.289 52.6418 101.401 51.6822C100.558 50.7516 99.9346 49.6391 99.5802 48.4288C99.2046 47.1559 99.0176 45.8326 99.0267 44.5031L99.0433 44.526V44.5245Z" fill="#4D4D4D"/>
<path d="M131.816 35.2656C130.88 35.2518 129.964 35.5544 129.215 36.1244C128.455 36.7203 127.817 37.4615 127.339 38.3065C126.812 39.205 126.417 40.1769 126.165 41.1901C125.922 42.1619 125.796 43.1583 125.79 44.1622C125.729 45.3863 125.975 46.6042 126.504 47.7075C126.986 48.554 127.85 48.9804 129.106 48.9804C130.044 48.9972 130.961 48.6931 131.708 48.117C132.469 47.521 133.109 46.7799 133.59 45.9364C134.109 45.0363 134.495 44.066 134.736 43.0528C134.978 42.0794 135.104 41.08 135.112 40.0745C135.174 38.852 134.928 37.6311 134.397 36.5293C133.916 35.6889 133.046 35.2625 131.795 35.2625L131.818 35.2686L131.816 35.2656ZM128.495 54.7032C127.085 54.7368 125.682 54.4877 124.366 53.9742C123.259 53.5311 122.269 52.8327 121.476 51.9327C120.696 51.0265 120.11 49.966 119.749 48.8199C119.359 47.5348 119.17 46.1946 119.196 44.8499C119.2 42.9978 119.493 41.158 120.066 39.3991C120.621 37.628 121.488 35.9746 122.622 34.5137C123.763 33.0544 125.18 31.8411 126.79 30.9471C128.522 30.0028 130.467 29.526 132.436 29.5611C133.839 29.5352 135.233 29.7827 136.543 30.29C137.652 30.7256 138.647 31.4147 139.449 32.3041C140.225 33.2133 140.81 34.2723 141.172 35.4169C141.565 36.7035 141.753 38.0452 141.725 39.393C141.719 41.2435 141.434 43.0819 140.878 44.8438C140.332 46.6164 139.481 48.2774 138.365 49.7505C137.241 51.216 135.83 52.4293 134.219 53.3126C132.459 54.2615 130.489 54.7414 128.495 54.7032Z" fill="#4D4D4D"/>
<path d="M152.214 27.2615C151.311 27.2707 150.429 26.9773 149.708 26.4257C148.938 25.8098 148.524 24.8471 148.601 23.8569C148.598 23.2396 148.727 22.6283 148.982 22.0675C149.219 21.5235 149.554 21.0299 149.967 20.6097C150.395 20.2017 150.889 19.8716 151.429 19.6332C151.987 19.3902 152.587 19.2665 153.195 19.268C154.1 19.2604 154.985 19.5568 155.707 20.1085C156.474 20.7258 156.888 21.687 156.814 22.6772C156.814 23.2976 156.683 23.9089 156.427 24.4712C156.187 25.0152 155.846 25.5088 155.425 25.9229C155.001 26.334 154.508 26.6641 153.97 26.8994C153.415 27.1408 152.818 27.2631 152.214 27.2585V27.2615ZM148.993 54.0631H142.351L147.952 30.1711H154.638L148.991 54.0631H148.993Z" fill="#4D4D4D"/>
<path d="M159.421 31.2604C159.925 31.1152 160.485 30.9349 161.082 30.7393C161.679 30.5437 162.377 30.3634 163.147 30.1785C163.99 29.9966 164.842 29.8606 165.699 29.7689C166.763 29.6543 167.833 29.6008 168.903 29.6069C172.403 29.6069 174.814 30.6369 176.143 32.6968C176.938 33.9315 177.34 35.4367 177.351 37.2139V37.3422C177.345 38.4975 177.175 39.7674 176.841 41.1488L173.792 54.0476H167.127L170.087 41.4177C170.264 40.6338 170.409 39.8697 170.514 39.124C170.629 38.4776 170.629 37.8175 170.514 37.1726C170.404 36.6332 170.11 36.1518 169.685 35.8095C169.094 35.4168 168.391 35.2334 167.686 35.2885C166.8 35.29 165.914 35.3817 165.045 35.5635L160.694 54.0705H153.99L159.421 31.2619V31.2604Z" fill="#4D4D4D"/>
</svg>
