<svg width="142" height="42" viewBox="0 0 142 42" fill="none" xmlns="http://www.w3.org/2000/svg">
<path d="M17.552 0.753251V19.0833H12.456V0.753251H17.552ZM38.212 19.0833H33.116L26.33 8.83925V19.0833H21.234V0.753251H26.33L33.116 11.1273V0.753251H38.212V19.0833ZM55.7009 0.753251V4.80925H50.8129V19.0833H45.7169V4.80925H40.8809V0.753251H55.7009ZM63.4623 4.83525V7.82525H69.3123V11.6993H63.4623V15.0013H70.0923V19.0833H58.3663V0.753251H70.0923V4.83525H63.4623ZM85.0905 6.78525C84.7958 6.29992 84.3885 5.92725 83.8685 5.66725C83.3658 5.40725 82.7678 5.27725 82.0745 5.27725C80.7918 5.27725 79.7778 5.69325 79.0325 6.52525C78.3045 7.35725 77.9405 8.47525 77.9405 9.87925C77.9405 11.4566 78.3305 12.6613 79.1105 13.4933C79.9078 14.3079 81.0605 14.7153 82.5685 14.7153C84.3538 14.7153 85.6278 13.9093 86.3905 12.2973H81.2685V8.63125H90.7845V13.5713C90.3858 14.5419 89.7965 15.4519 89.0165 16.3013C88.2538 17.1506 87.2831 17.8526 86.1045 18.4073C84.9258 18.9446 83.5825 19.2133 82.0745 19.2133C80.2371 19.2133 78.6078 18.8233 77.1865 18.0433C75.7825 17.2459 74.6905 16.1453 73.9105 14.7413C73.1478 13.3199 72.7665 11.6993 72.7665 9.87925C72.7665 8.07658 73.1478 6.47325 73.9105 5.06925C74.6905 3.64792 75.7825 2.54725 77.1865 1.76725C78.5905 0.969918 80.2111 0.571252 82.0485 0.571252C84.3538 0.571252 86.2605 1.12592 87.7685 2.23525C89.2765 3.34458 90.2125 4.86125 90.5765 6.78525H85.0905ZM103.13 19.0833L99.4902 12.3233H98.9442V19.0833H93.8482V0.753251H101.882C103.356 0.753251 104.604 1.01325 105.626 1.53325C106.649 2.03592 107.42 2.73792 107.94 3.63925C108.46 4.52325 108.72 5.51992 108.72 6.62925C108.72 7.87725 108.374 8.97792 107.68 9.93125C107.004 10.8673 106.008 11.5346 104.69 11.9333L108.824 19.0833H103.13ZM98.9442 8.83925H101.466C102.16 8.83925 102.68 8.67458 103.026 8.34525C103.373 8.01592 103.546 7.53925 103.546 6.91525C103.546 6.32592 103.364 5.86658 103 5.53725C102.654 5.19058 102.142 5.01725 101.466 5.01725H98.9442V8.83925ZM120.606 19.2653C118.89 19.2653 117.312 18.8666 115.874 18.0693C114.435 17.2546 113.291 16.1366 112.442 14.7153C111.61 13.2766 111.194 11.6559 111.194 9.85325C111.194 8.05058 111.61 6.43858 112.442 5.01725C113.291 3.57858 114.435 2.46058 115.874 1.66325C117.312 0.865918 118.89 0.467251 120.606 0.467251C122.339 0.467251 123.916 0.865918 125.338 1.66325C126.776 2.46058 127.912 3.57858 128.744 5.01725C129.576 6.43858 129.992 8.05058 129.992 9.85325C129.992 11.6559 129.576 13.2766 128.744 14.7153C127.912 16.1366 126.776 17.2546 125.338 18.0693C123.899 18.8666 122.322 19.2653 120.606 19.2653ZM120.606 14.5333C121.906 14.5333 122.928 14.1086 123.674 13.2593C124.436 12.4099 124.818 11.2746 124.818 9.85325C124.818 8.39725 124.436 7.25325 123.674 6.42125C122.928 5.57192 121.906 5.14725 120.606 5.14725C119.288 5.14725 118.257 5.57192 117.512 6.42125C116.766 7.25325 116.394 8.39725 116.394 9.85325C116.394 11.2919 116.766 12.4359 117.512 13.2853C118.257 14.1173 119.288 14.5333 120.606 14.5333Z" fill="#493979"/>
<path d="M4.85 33.4233H1.67L1.06 35.0833H0.32L2.87 28.1833H3.66L6.2 35.0833H5.46L4.85 33.4233ZM4.64 32.8433L3.26 29.0633L1.88 32.8433H4.64ZM11.7134 28.0933V28.6733H9.77344V35.0833H9.07344V28.6733H7.12344V28.0933H11.7134ZM17.2088 28.0933V28.6733H15.2688V35.0833H14.5688V28.6733H12.6188V28.0933H17.2088ZM21.7541 35.1533C21.1074 35.1533 20.5207 35.0033 19.9941 34.7033C19.4674 34.3966 19.0507 33.9733 18.7441 33.4333C18.4441 32.8866 18.2941 32.2699 18.2941 31.5833C18.2941 30.8966 18.4441 30.2833 18.7441 29.7433C19.0507 29.1966 19.4674 28.7733 19.9941 28.4733C20.5207 28.1666 21.1074 28.0133 21.7541 28.0133C22.4074 28.0133 22.9974 28.1666 23.5241 28.4733C24.0507 28.7733 24.4641 29.1966 24.7641 29.7433C25.0641 30.2833 25.2141 30.8966 25.2141 31.5833C25.2141 32.2699 25.0641 32.8866 24.7641 33.4333C24.4641 33.9733 24.0507 34.3966 23.5241 34.7033C22.9974 35.0033 22.4074 35.1533 21.7541 35.1533ZM21.7541 34.5433C22.2741 34.5433 22.7407 34.4233 23.1541 34.1833C23.5674 33.9433 23.8941 33.5999 24.1341 33.1533C24.3741 32.6999 24.4941 32.1766 24.4941 31.5833C24.4941 30.9899 24.3741 30.4699 24.1341 30.0233C23.8941 29.5766 23.5674 29.2333 23.1541 28.9933C22.7407 28.7533 22.2741 28.6333 21.7541 28.6333C21.2341 28.6333 20.7674 28.7533 20.3541 28.9933C19.9407 29.2333 19.6141 29.5766 19.3741 30.0233C19.1341 30.4699 19.0141 30.9899 19.0141 31.5833C19.0141 32.1766 19.1341 32.6999 19.3741 33.1533C19.6141 33.5999 19.9407 33.9433 20.3541 34.1833C20.7674 34.4233 21.2341 34.5433 21.7541 34.5433ZM30.5149 35.0833L28.7849 32.1633H27.4949V35.0833H26.7949V28.0933H28.8949C29.6749 28.0933 30.2649 28.2799 30.6649 28.6533C31.0716 29.0266 31.2749 29.5166 31.2749 30.1233C31.2749 30.6299 31.1283 31.0633 30.8349 31.4233C30.5483 31.7766 30.1216 32.0066 29.5549 32.1133L31.3549 35.0833H30.5149ZM27.4949 31.5933H28.9049C29.4516 31.5933 29.8616 31.4599 30.1349 31.1933C30.4149 30.9266 30.5549 30.5699 30.5549 30.1233C30.5549 29.6633 30.4216 29.3099 30.1549 29.0633C29.8883 28.8099 29.4683 28.6833 28.8949 28.6833H27.4949V31.5933ZM38.2341 35.0833H37.5341L33.6641 29.2033V35.0833H32.9641V28.0933H33.6641L37.5341 33.9633V28.0933H38.2341V35.0833ZM40.8195 28.6633V31.2733H43.4695V31.8533H40.8195V34.5033H43.7695V35.0833H40.1195V28.0833H43.7695V28.6633H40.8195ZM50.0688 28.0933L47.8288 32.3633V35.0833H47.1288V32.3633L44.8688 28.0933H45.6588L47.4788 31.7233L49.2888 28.0933H50.0688ZM53.5134 35.1533C53.0534 35.1533 52.6467 35.0733 52.2934 34.9133C51.9467 34.7533 51.6734 34.5299 51.4734 34.2433C51.2734 33.9566 51.1667 33.6366 51.1534 33.2833H51.8934C51.9267 33.6233 52.0767 33.9233 52.3434 34.1833C52.61 34.4366 53 34.5633 53.5134 34.5633C53.9867 34.5633 54.36 34.4433 54.6334 34.2033C54.9134 33.9566 55.0534 33.6466 55.0534 33.2733C55.0534 32.9733 54.9767 32.7333 54.8234 32.5533C54.67 32.3666 54.48 32.2299 54.2534 32.1433C54.0267 32.0499 53.7134 31.9499 53.3134 31.8433C52.8467 31.7166 52.4767 31.5933 52.2034 31.4733C51.93 31.3533 51.6967 31.1666 51.5034 30.9133C51.31 30.6599 51.2134 30.3166 51.2134 29.8833C51.2134 29.5233 51.3067 29.2033 51.4934 28.9233C51.68 28.6366 51.9434 28.4133 52.2834 28.2533C52.6234 28.0933 53.0134 28.0133 53.4534 28.0133C54.1 28.0133 54.62 28.1733 55.0134 28.4933C55.4134 28.8066 55.6434 29.2133 55.7034 29.7133H54.9434C54.8967 29.4266 54.74 29.1733 54.4734 28.9533C54.2067 28.7266 53.8467 28.6133 53.3934 28.6133C52.9734 28.6133 52.6234 28.7266 52.3434 28.9533C52.0634 29.1733 51.9234 29.4766 51.9234 29.8633C51.9234 30.1566 52 30.3933 52.1534 30.5733C52.3067 30.7533 52.4967 30.8899 52.7234 30.9833C52.9567 31.0766 53.27 31.1766 53.6634 31.2833C54.1167 31.4099 54.4834 31.5366 54.7634 31.6633C55.0434 31.7833 55.28 31.9699 55.4734 32.2233C55.6667 32.4766 55.7634 32.8166 55.7634 33.2433C55.7634 33.5699 55.6767 33.8799 55.5034 34.1733C55.33 34.4666 55.0734 34.7033 54.7334 34.8833C54.3934 35.0633 53.9867 35.1533 53.5134 35.1533ZM65.7802 35.0833L64.8302 34.1133C64.4902 34.4866 64.1268 34.7633 63.7402 34.9433C63.3535 35.1166 62.9168 35.2033 62.4302 35.2033C61.9635 35.2033 61.5502 35.1166 61.1902 34.9433C60.8302 34.7633 60.5502 34.5133 60.3502 34.1933C60.1502 33.8733 60.0502 33.5033 60.0502 33.0833C60.0502 32.5899 60.1902 32.1599 60.4702 31.7933C60.7502 31.4266 61.1602 31.1399 61.7002 30.9333C61.4668 30.6733 61.2968 30.4333 61.1902 30.2133C61.0835 29.9866 61.0302 29.7433 61.0302 29.4833C61.0302 29.0366 61.1902 28.6766 61.5102 28.4033C61.8302 28.1233 62.2568 27.9833 62.7902 27.9833C63.2902 27.9833 63.6968 28.1266 64.0102 28.4133C64.3235 28.6999 64.4702 29.0733 64.4502 29.5333H63.7502C63.7568 29.2333 63.6635 28.9966 63.4702 28.8233C63.2835 28.6499 63.0468 28.5633 62.7602 28.5633C62.4535 28.5633 62.2035 28.6499 62.0102 28.8233C61.8235 28.9899 61.7302 29.2066 61.7302 29.4733C61.7302 29.6866 61.7868 29.8933 61.9002 30.0933C62.0202 30.2933 62.2068 30.5299 62.4602 30.8033L64.7602 33.1333C64.8535 33.0066 64.9802 32.8066 65.1402 32.5333L65.7802 31.4633H66.5302L65.7702 32.7733C65.5902 33.0866 65.4102 33.3666 65.2302 33.6133L66.6902 35.0833H65.7802ZM62.4302 34.5933C62.8235 34.5933 63.1735 34.5166 63.4802 34.3633C63.7935 34.2099 64.0902 33.9699 64.3702 33.6433L62.1402 31.3833C61.2135 31.7233 60.7502 32.2833 60.7502 33.0633C60.7502 33.3566 60.8202 33.6199 60.9602 33.8533C61.1068 34.0799 61.3068 34.2599 61.5602 34.3933C61.8135 34.5266 62.1035 34.5933 62.4302 34.5933ZM70.6718 31.5833C70.6718 30.8966 70.8218 30.2833 71.1218 29.7433C71.4218 29.1966 71.8318 28.7733 72.3518 28.4733C72.8718 28.1666 73.4518 28.0133 74.0918 28.0133C74.8718 28.0133 75.5385 28.1999 76.0918 28.5733C76.6518 28.9399 77.0585 29.4599 77.3118 30.1333H76.4918C76.2918 29.6599 75.9851 29.2899 75.5718 29.0233C75.1651 28.7566 74.6718 28.6233 74.0918 28.6233C73.5785 28.6233 73.1151 28.7433 72.7018 28.9833C72.2951 29.2233 71.9751 29.5699 71.7418 30.0233C71.5085 30.4699 71.3918 30.9899 71.3918 31.5833C71.3918 32.1766 71.5085 32.6966 71.7418 33.1433C71.9751 33.5899 72.2951 33.9333 72.7018 34.1733C73.1151 34.4133 73.5785 34.5333 74.0918 34.5333C74.6718 34.5333 75.1651 34.4033 75.5718 34.1433C75.9851 33.8766 76.2918 33.5099 76.4918 33.0433H77.3118C77.0585 33.7099 76.6518 34.2266 76.0918 34.5933C75.5318 34.9599 74.8651 35.1433 74.0918 35.1433C73.4518 35.1433 72.8718 34.9933 72.3518 34.6933C71.8318 34.3866 71.4218 33.9633 71.1218 33.4233C70.8218 32.8833 70.6718 32.2699 70.6718 31.5833ZM82.1466 35.1533C81.5 35.1533 80.9133 35.0033 80.3866 34.7033C79.86 34.3966 79.4433 33.9733 79.1366 33.4333C78.8366 32.8866 78.6866 32.2699 78.6866 31.5833C78.6866 30.8966 78.8366 30.2833 79.1366 29.7433C79.4433 29.1966 79.86 28.7733 80.3866 28.4733C80.9133 28.1666 81.5 28.0133 82.1466 28.0133C82.8 28.0133 83.39 28.1666 83.9166 28.4733C84.4433 28.7733 84.8566 29.1966 85.1566 29.7433C85.4566 30.2833 85.6066 30.8966 85.6066 31.5833C85.6066 32.2699 85.4566 32.8866 85.1566 33.4333C84.8566 33.9733 84.4433 34.3966 83.9166 34.7033C83.39 35.0033 82.8 35.1533 82.1466 35.1533ZM82.1466 34.5433C82.6666 34.5433 83.1333 34.4233 83.5466 34.1833C83.96 33.9433 84.2866 33.5999 84.5266 33.1533C84.7666 32.6999 84.8866 32.1766 84.8866 31.5833C84.8866 30.9899 84.7666 30.4699 84.5266 30.0233C84.2866 29.5766 83.96 29.2333 83.5466 28.9933C83.1333 28.7533 82.6666 28.6333 82.1466 28.6333C81.6266 28.6333 81.16 28.7533 80.7466 28.9933C80.3333 29.2333 80.0066 29.5766 79.7666 30.0233C79.5266 30.4699 79.4066 30.9899 79.4066 31.5833C79.4066 32.1766 79.5266 32.6999 79.7666 33.1533C80.0066 33.5999 80.3333 33.9433 80.7466 34.1833C81.16 34.4233 81.6266 34.5433 82.1466 34.5433ZM92.4575 35.0833H91.7575L87.8875 29.2033V35.0833H87.1875V28.0933H87.8875L91.7575 33.9633V28.0933H92.4575V35.0833ZM96.463 35.1533C96.003 35.1533 95.5963 35.0733 95.243 34.9133C94.8963 34.7533 94.623 34.5299 94.423 34.2433C94.223 33.9566 94.1163 33.6366 94.103 33.2833H94.843C94.8763 33.6233 95.0263 33.9233 95.293 34.1833C95.5596 34.4366 95.9496 34.5633 96.463 34.5633C96.9363 34.5633 97.3096 34.4433 97.583 34.2033C97.863 33.9566 98.003 33.6466 98.003 33.2733C98.003 32.9733 97.9263 32.7333 97.773 32.5533C97.6196 32.3666 97.4296 32.2299 97.203 32.1433C96.9763 32.0499 96.663 31.9499 96.263 31.8433C95.7963 31.7166 95.4263 31.5933 95.153 31.4733C94.8796 31.3533 94.6463 31.1666 94.453 30.9133C94.2596 30.6599 94.163 30.3166 94.163 29.8833C94.163 29.5233 94.2563 29.2033 94.443 28.9233C94.6296 28.6366 94.893 28.4133 95.233 28.2533C95.573 28.0933 95.963 28.0133 96.403 28.0133C97.0496 28.0133 97.5696 28.1733 97.963 28.4933C98.363 28.8066 98.593 29.2133 98.653 29.7133H97.893C97.8463 29.4266 97.6896 29.1733 97.423 28.9533C97.1563 28.7266 96.7963 28.6133 96.343 28.6133C95.923 28.6133 95.573 28.7266 95.293 28.9533C95.013 29.1733 94.873 29.4766 94.873 29.8633C94.873 30.1566 94.9496 30.3933 95.103 30.5733C95.2563 30.7533 95.4463 30.8899 95.673 30.9833C95.9063 31.0766 96.2196 31.1766 96.613 31.2833C97.0663 31.4099 97.433 31.5366 97.713 31.6633C97.993 31.7833 98.2296 31.9699 98.423 32.2233C98.6163 32.4766 98.713 32.8166 98.713 33.2433C98.713 33.5699 98.6263 33.8799 98.453 34.1733C98.2796 34.4666 98.023 34.7033 97.683 34.8833C97.343 35.0633 96.9363 35.1533 96.463 35.1533ZM101.036 28.0933V32.4933C101.036 33.1866 101.199 33.6999 101.526 34.0333C101.859 34.3666 102.312 34.5333 102.886 34.5333C103.459 34.5333 103.906 34.3699 104.226 34.0433C104.552 33.7099 104.716 33.1933 104.716 32.4933V28.0933H105.416V32.4833C105.416 33.3699 105.179 34.0366 104.706 34.4833C104.239 34.9299 103.629 35.1533 102.876 35.1533C102.122 35.1533 101.509 34.9299 101.036 34.4833C100.569 34.0366 100.336 33.3699 100.336 32.4833V28.0933H101.036ZM107.977 34.5133H110.487V35.0833H107.277V28.0933H107.977V34.5133ZM115.876 28.0933V28.6733H113.936V35.0833H113.236V28.6733H111.286V28.0933H115.876ZM121.331 33.4233H118.151L117.541 35.0833H116.801L119.351 28.1833H120.141L122.681 35.0833H121.941L121.331 33.4233ZM121.121 32.8433L119.741 29.0633L118.361 32.8433H121.121ZM129.375 35.0833H128.675L124.805 29.2033V35.0833H124.105V28.0933H124.805L128.675 33.9633V28.0933H129.375V35.0833ZM135.35 28.0933V28.6733H133.41V35.0833H132.71V28.6733H130.76V28.0933H135.35ZM138.875 35.1533C138.415 35.1533 138.009 35.0733 137.655 34.9133C137.309 34.7533 137.035 34.5299 136.835 34.2433C136.635 33.9566 136.529 33.6366 136.515 33.2833H137.255C137.289 33.6233 137.439 33.9233 137.705 34.1833C137.972 34.4366 138.362 34.5633 138.875 34.5633C139.349 34.5633 139.722 34.4433 139.995 34.2033C140.275 33.9566 140.415 33.6466 140.415 33.2733C140.415 32.9733 140.339 32.7333 140.185 32.5533C140.032 32.3666 139.842 32.2299 139.615 32.1433C139.389 32.0499 139.075 31.9499 138.675 31.8433C138.209 31.7166 137.839 31.5933 137.565 31.4733C137.292 31.3533 137.059 31.1666 136.865 30.9133C136.672 30.6599 136.575 30.3166 136.575 29.8833C136.575 29.5233 136.669 29.2033 136.855 28.9233C137.042 28.6366 137.305 28.4133 137.645 28.2533C137.985 28.0933 138.375 28.0133 138.815 28.0133C139.462 28.0133 139.982 28.1733 140.375 28.4933C140.775 28.8066 141.005 29.2133 141.065 29.7133H140.305C140.259 29.4266 140.102 29.1733 139.835 28.9533C139.569 28.7266 139.209 28.6133 138.755 28.6133C138.335 28.6133 137.985 28.7266 137.705 28.9533C137.425 29.1733 137.285 29.4766 137.285 29.8633C137.285 30.1566 137.362 30.3933 137.515 30.5733C137.669 30.7533 137.859 30.8899 138.085 30.9833C138.319 31.0766 138.632 31.1766 139.025 31.2833C139.479 31.4099 139.845 31.5366 140.125 31.6633C140.405 31.7833 140.642 31.9699 140.835 32.2233C141.029 32.4766 141.125 32.8166 141.125 33.2433C141.125 33.5699 141.039 33.8799 140.865 34.1733C140.692 34.4666 140.435 34.7033 140.095 34.8833C139.755 35.0633 139.349 35.1533 138.875 35.1533Z" fill="#1E1E1E"/>
</svg>
