<svg width="187" height="75" viewBox="0 0 187 75" fill="none" xmlns="http://www.w3.org/2000/svg">
<path fill-rule="evenodd" clip-rule="evenodd" d="M112.559 68.2883C129.664 68.2883 143.531 54.5866 143.531 37.6847C143.531 20.7828 129.664 7.08112 112.559 7.08112C104.893 7.08112 97.8769 9.83318 92.4685 14.392C87.0602 9.83318 80.0445 7.08112 72.3784 7.08112C55.273 7.08112 41.4062 20.7828 41.4062 37.6847C41.4062 54.5866 55.273 68.2883 72.3784 68.2883C80.0445 68.2883 87.0602 65.5362 92.4686 60.9774C97.8769 65.5362 104.893 68.2883 112.559 68.2883Z" fill="#ED0006"/>
<path fill-rule="evenodd" clip-rule="evenodd" d="M92.4688 60.9776C99.1282 55.3643 103.351 47.0118 103.351 37.6847C103.351 28.3577 99.1282 20.0051 92.4688 14.3919C97.8771 9.83313 104.893 7.08112 112.559 7.08112C129.664 7.08112 143.531 20.7828 143.531 37.6847C143.531 54.5866 129.664 68.2883 112.559 68.2883C104.893 68.2883 97.8771 65.5363 92.4688 60.9776Z" fill="#F9A000"/>
<path fill-rule="evenodd" clip-rule="evenodd" d="M92.4689 60.9775C99.1283 55.3642 103.351 47.0117 103.351 37.6848C103.351 28.3578 99.1283 20.0053 92.4689 14.392C85.8096 20.0053 81.5869 28.3578 81.5869 37.6848C81.5869 47.0117 85.8096 55.3642 92.4689 60.9775Z" fill="#FF5E00"/>
</svg>
