<svg width="186" height="75" viewBox="0 0 186 75" fill="none" xmlns="http://www.w3.org/2000/svg">
<path d="M63.6579 45.6825C61.8433 45.6825 60.1496 45.2792 58.6172 44.4727C57.1252 43.6662 55.9154 42.5371 54.988 41.0451C54.1008 39.553 53.6572 37.8997 53.6572 36.085C53.6572 34.2704 54.1008 32.6171 54.988 31.1653C55.8751 29.7136 57.0849 28.5845 58.6172 27.7377C60.1496 26.9312 61.803 26.5279 63.6579 26.5279C65.5129 26.5279 67.1662 26.9312 68.6583 27.7377C70.1906 28.5442 71.4004 29.6733 72.2472 31.1653C73.1344 32.6171 73.578 34.2704 73.578 36.085C73.578 37.8997 73.1344 39.553 72.2472 41.0451C71.3601 42.4968 70.1503 43.6259 68.6583 44.4727C67.1662 45.2792 65.4726 45.6825 63.6579 45.6825ZM63.6579 41.529C65.1903 41.529 66.4404 41.0451 67.3679 40.0369C68.2953 39.0288 68.7793 37.7384 68.7793 36.085C68.7793 34.4317 68.2953 33.101 67.3679 32.1332C66.4404 31.125 65.2306 30.6411 63.6579 30.6411C62.0852 30.6411 60.8351 31.125 59.9077 32.0928C58.9802 33.0606 58.5366 34.3914 58.5366 36.0447C58.5366 37.6981 58.9802 39.0288 59.9077 39.9966C60.8351 41.0451 62.0852 41.529 63.6579 41.529Z" fill="#04111D"/>
<path d="M80.9173 32.738C81.3609 32.0525 82.0061 31.4879 82.8126 31.0443C83.6191 30.6008 84.5869 30.3991 85.6757 30.3991C86.9661 30.3991 88.0952 30.7217 89.1437 31.3266C90.1921 31.9315 90.9986 32.8186 91.5632 33.9881C92.1681 35.1575 92.4907 36.4883 92.4907 38.0206C92.4907 39.553 92.1681 40.8837 91.5632 42.0532C90.9583 43.2226 90.1518 44.1098 89.1437 44.755C88.0952 45.3598 86.9661 45.6825 85.6757 45.6825C84.6272 45.6825 83.6594 45.4808 82.8126 45.0372C82.0061 44.5937 81.3609 44.0694 80.9173 43.3839V49.8763H76.1992V30.6008H80.9173V32.738ZM87.6516 38.0206C87.6516 36.8915 87.329 36.0044 86.6435 35.3591C85.9983 34.7139 85.1918 34.3913 84.224 34.3913C83.2562 34.3913 82.49 34.7139 81.8044 35.3591C81.1592 36.0044 80.8366 36.9318 80.8366 38.061C80.8366 39.1901 81.1592 40.0772 81.8044 40.7628C82.4497 41.408 83.2562 41.7306 84.224 41.7306C85.1918 41.7306 85.958 41.408 86.6435 40.7628C87.329 40.0772 87.6516 39.1901 87.6516 38.0206Z" fill="#04111D"/>
<path d="M109.468 37.8194C109.468 38.263 109.427 38.7065 109.387 39.1501H98.7009C98.7815 40.0776 99.0638 40.8035 99.6284 41.2874C100.193 41.7713 100.838 42.0132 101.645 42.0132C102.814 42.0132 103.661 41.5293 104.104 40.5615H109.145C108.903 41.5293 108.419 42.4165 107.734 43.1826C107.089 43.9488 106.242 44.594 105.234 45.0376C104.225 45.4812 103.096 45.7231 101.846 45.7231C100.354 45.7231 98.9832 45.4005 97.8137 44.7957C96.6443 44.1908 95.7168 43.3036 95.0716 42.1342C94.4264 40.9648 94.0635 39.634 94.0635 38.1016C94.0635 36.5693 94.3861 35.1982 95.0313 34.0691C95.6765 32.8997 96.604 32.0125 97.7734 31.4076C98.9428 30.8028 100.314 30.4801 101.846 30.4801C103.379 30.4801 104.669 30.7624 105.838 31.3673C107.008 31.9722 107.895 32.819 108.54 33.9481C109.145 35.0369 109.468 36.3273 109.468 37.8194ZM104.629 36.6096C104.629 35.8434 104.346 35.1982 103.782 34.7546C103.217 34.3111 102.532 34.0691 101.725 34.0691C100.919 34.0691 100.274 34.3111 99.709 34.7546C99.1848 35.1982 98.8622 35.8434 98.7009 36.6499H104.629V36.6096Z" fill="#04111D"/>
<path d="M121.364 30.4801C123.178 30.4801 124.59 31.0447 125.678 32.1738C126.767 33.3029 127.291 34.8353 127.291 36.8112V45.4812H122.614V37.4161C122.614 36.408 122.331 35.6418 121.807 35.1176C121.283 34.553 120.557 34.3111 119.67 34.3111C118.783 34.3111 118.057 34.5933 117.533 35.1176C117.008 35.6821 116.726 36.4483 116.726 37.4161V45.4812H111.968V30.6011H116.686V32.5771C117.17 31.9319 117.815 31.4076 118.621 31.0447C119.428 30.6818 120.355 30.4801 121.364 30.4801Z" fill="#04111D"/>
<path d="M137.574 45.6825C136.163 45.6825 134.873 45.4405 133.743 44.997C132.614 44.5534 131.727 43.9082 131.042 43.021C130.396 42.1339 130.033 41.0854 129.993 39.8756H135.034C135.114 40.5612 135.356 41.0854 135.8 41.4886C136.203 41.8516 136.768 42.0129 137.453 42.0129C138.139 42.0129 138.703 41.8516 139.107 41.5693C139.51 41.2467 139.712 40.8031 139.712 40.2789C139.712 39.8353 139.55 39.4321 139.228 39.1498C138.905 38.8675 138.502 38.5852 138.058 38.4239C137.615 38.2223 136.929 38.0207 136.082 37.7384C134.832 37.3755 133.824 37.0125 133.018 36.6093C132.211 36.2463 131.526 35.6818 130.961 34.9559C130.396 34.2301 130.114 33.2623 130.114 32.0928C130.114 30.3588 130.759 28.9878 132.09 28.02C133.38 27.0118 135.114 26.5279 137.211 26.5279C139.308 26.5279 141.083 27.0118 142.373 28.02C143.663 28.9878 144.389 30.3588 144.47 32.1332H139.349C139.308 31.5283 139.066 31.0444 138.663 30.7218C138.26 30.3588 137.695 30.1975 137.05 30.1975C136.486 30.1975 136.002 30.3588 135.679 30.6411C135.316 30.9234 135.155 31.3266 135.155 31.8912C135.155 32.4961 135.437 32.98 136.042 33.3026C136.647 33.6252 137.534 33.9881 138.784 34.3914C140.034 34.7946 141.042 35.1979 141.809 35.5608C142.615 35.9237 143.301 36.4883 143.865 37.1738C144.43 37.8997 144.712 38.7868 144.712 39.916C144.712 40.9644 144.43 41.9322 143.865 42.8194C143.301 43.7065 142.494 44.3921 141.446 44.9163C140.316 45.4405 139.066 45.6825 137.574 45.6825Z" fill="#04111D"/>
<path d="M162.092 37.8194C162.092 38.263 162.051 38.7065 162.011 39.1501H151.325C151.406 40.0776 151.688 40.8035 152.252 41.2874C152.817 41.7713 153.462 42.0132 154.269 42.0132C155.438 42.0132 156.285 41.5293 156.729 40.5615H161.769C161.527 41.5293 161.043 42.4165 160.358 43.1826C159.713 43.9488 158.866 44.594 157.858 45.0376C156.849 45.4812 155.72 45.7231 154.47 45.7231C152.978 45.7231 151.607 45.4005 150.438 44.7957C149.268 44.1908 148.341 43.3036 147.696 42.1342C147.05 40.9648 146.688 39.634 146.688 38.1016C146.688 36.5693 147.01 35.1982 147.655 34.0691C148.301 32.8997 149.228 32.0125 150.397 31.4076C151.567 30.8028 152.938 30.4801 154.47 30.4801C156.003 30.4801 157.293 30.7624 158.463 31.3673C159.632 31.9722 160.519 32.819 161.164 33.9481C161.769 35.0369 162.092 36.3273 162.092 37.8194ZM157.253 36.6096C157.253 35.8434 156.97 35.1982 156.406 34.7546C155.841 34.3111 155.156 34.0691 154.349 34.0691C153.543 34.0691 152.898 34.3111 152.333 34.7546C151.809 35.1982 151.486 35.8434 151.325 36.6499H157.253V36.6096Z" fill="#04111D"/>
<path d="M163.665 38.0206C163.665 36.4883 163.947 35.1575 164.552 33.9881C165.157 32.8186 165.964 31.9315 167.012 31.3266C168.061 30.7217 169.19 30.3991 170.48 30.3991C171.569 30.3991 172.496 30.6008 173.343 31.0443C174.19 31.4879 174.795 32.0121 175.238 32.738V30.6411H179.956V45.5211H175.238V43.4242C174.795 44.1098 174.15 44.6743 173.303 45.1179C172.496 45.5615 171.528 45.7631 170.44 45.7631C169.19 45.7631 168.061 45.4405 167.012 44.8356C165.964 44.1904 165.157 43.3033 164.552 42.1338C163.947 40.9241 163.665 39.553 163.665 38.0206ZM175.198 38.0609C175.198 36.9318 174.875 36.0447 174.19 35.3591C173.545 34.7139 172.738 34.3913 171.811 34.3913C170.883 34.3913 170.077 34.7139 169.391 35.3591C168.746 36.0044 168.423 36.8915 168.423 38.0206C168.423 39.1497 168.746 40.0772 169.391 40.7224C170.036 41.3676 170.843 41.6902 171.811 41.6902C172.779 41.6902 173.545 41.3676 174.19 40.7224C174.875 40.1175 175.198 39.1901 175.198 38.0609Z" fill="#04111D"/>
<path d="M45.0275 38.2225C45.0275 49.3523 35.9947 58.3852 24.8648 58.3852C13.735 58.3852 4.70215 49.3523 4.70215 38.2225C4.70215 27.0927 13.735 18.0598 24.8648 18.0598C35.9947 18.0598 45.0275 27.0927 45.0275 38.2225Z" fill="#2081E2"/>
<path d="M14.6623 38.9078L14.743 38.7868L19.9853 30.6008C20.066 30.4798 20.2273 30.4798 20.3079 30.6411C21.1951 32.6171 21.9209 35.0366 21.5983 36.5689C21.437 37.2142 21.0338 38.061 20.5499 38.8272C20.5095 38.9481 20.4289 39.0691 20.3482 39.1498C20.3079 39.1901 20.2676 39.2304 20.1869 39.2304H14.7833C14.6623 39.1901 14.5817 39.0288 14.6623 38.9078Z" fill="white"/>
<path d="M38.0107 40.4406V41.7311C38.0107 41.8117 37.9703 41.852 37.8897 41.8924C37.4864 42.0537 36.075 42.6989 35.5105 43.5054C34.0184 45.562 32.8893 48.5057 30.3892 48.5057H19.8642C16.1543 48.5057 13.1299 45.4813 13.1299 41.7311V41.6101C13.1299 41.5294 13.2105 41.4488 13.2912 41.4488H19.219C19.34 41.4488 19.4206 41.5697 19.4206 41.6504C19.3803 42.0133 19.461 42.4166 19.6223 42.7795C19.9852 43.5054 20.7111 43.9086 21.4772 43.9086H24.3807V41.6504H21.5176C21.3563 41.6504 21.2756 41.4891 21.3563 41.3681C21.3966 41.3278 21.4369 41.2875 21.4772 41.2068C21.7595 40.8036 22.1224 40.239 22.5257 39.5535C22.808 39.1099 23.0499 38.5857 23.2516 38.1018C23.2919 38.0211 23.3322 37.9405 23.3725 37.8195C23.4129 37.6582 23.4935 37.4969 23.5338 37.3759C23.5742 37.2549 23.6145 37.134 23.6548 37.013C23.7355 36.6097 23.7758 36.1661 23.7758 35.6822C23.7758 35.5209 23.7758 35.3193 23.7355 35.1177C23.7355 34.9161 23.6951 34.7144 23.6951 34.5128C23.6951 34.3515 23.6548 34.1499 23.6145 33.9886C23.5742 33.7063 23.5338 33.4643 23.4532 33.1821L23.4129 33.1014C23.3725 32.9401 23.3322 32.7385 23.2516 32.5772C23.0903 32.0126 22.8886 31.4481 22.687 30.9642C22.6064 30.7625 22.5257 30.5609 22.445 30.3593C22.3241 30.077 22.2031 29.7947 22.0821 29.5528C22.0418 29.4318 21.9611 29.3512 21.9208 29.2302C21.8805 29.1092 21.7998 28.9882 21.7595 28.8672L21.6385 28.6253L21.2756 27.9801C21.2353 27.8994 21.3159 27.7785 21.3966 27.8188L23.6145 28.4237L23.8968 28.5043L24.2194 28.585L24.3403 28.6253V27.2946C24.3403 26.6494 24.8646 26.1251 25.4695 26.1251C25.7921 26.1251 26.0743 26.2461 26.276 26.4477C26.4776 26.6494 26.5986 26.9316 26.5986 27.2542V29.1899L26.8405 29.2705C26.8405 29.2705 26.8808 29.2705 26.8808 29.3108C26.9212 29.3512 27.0018 29.4318 27.1228 29.5125C27.2034 29.5931 27.2841 29.6738 27.4051 29.7544C27.6067 29.9157 27.889 30.1577 28.1713 30.3996C28.2519 30.4803 28.3326 30.5206 28.3729 30.6012C28.7358 30.9238 29.1391 31.3271 29.5423 31.7707C29.6633 31.8917 29.7439 32.0126 29.8649 32.1336C29.9859 32.2546 30.0666 32.4159 30.1875 32.5369C30.3085 32.6982 30.4698 32.8998 30.5908 33.0611C30.6311 33.1417 30.7118 33.2224 30.7521 33.3434C30.9134 33.5853 31.0344 33.8273 31.1957 34.0692C31.236 34.1902 31.3166 34.3112 31.357 34.4322C31.5183 34.7548 31.6392 35.0774 31.6796 35.4403C31.7199 35.5209 31.7199 35.6016 31.7199 35.6419C31.7602 35.7226 31.7602 35.8435 31.7602 35.9645C31.8005 36.3274 31.7602 36.6501 31.7199 37.013C31.6796 37.1743 31.6392 37.2953 31.5989 37.4566C31.5586 37.5775 31.5183 37.7388 31.4376 37.9001C31.3166 38.1824 31.1553 38.4647 30.994 38.747C30.9537 38.8276 30.8731 38.9486 30.7924 39.0696C30.7118 39.1905 30.6311 39.2712 30.5908 39.3922C30.5101 39.5132 30.3892 39.6341 30.3085 39.7551C30.2278 39.8761 30.1472 39.9971 30.0262 40.118C29.9052 40.2793 29.7439 40.4406 29.623 40.6019C29.5423 40.6826 29.4617 40.8036 29.3407 40.8842C29.26 40.9649 29.1794 41.0858 29.0584 41.1665C28.9374 41.2875 28.8165 41.4084 28.6955 41.4891L28.4535 41.6907C28.4132 41.7311 28.3729 41.7311 28.3326 41.7311H26.5582V43.9893H28.7761C29.26 43.9893 29.7439 43.828 30.1069 43.5054C30.2278 43.3844 30.7924 42.9005 31.4779 42.1746C31.5048 42.1477 31.5317 42.1343 31.5586 42.1343L37.6881 40.36C37.93 40.239 38.0107 40.3197 38.0107 40.4406Z" fill="white"/>
</svg>
