<svg width="56" height="56" viewBox="0 0 56 56" fill="none" xmlns="http://www.w3.org/2000/svg">
<path d="M0 6.41666C0 4.16033 1.82933 2.33333 4.08333 2.33333H33.25C35.5063 2.33333 37.3333 4.16033 37.3333 6.41666V28.5833C37.3333 29.6663 36.9031 30.7049 36.1374 31.4707C35.3716 32.2365 34.333 32.6667 33.25 32.6667H18.809L12.803 38.6703C12.3276 39.1455 11.7219 39.4691 11.0626 39.6002C10.4033 39.7313 9.71989 39.664 9.09883 39.4068C8.47777 39.1495 7.9469 38.714 7.57333 38.1551C7.19975 37.5963 7.00023 36.9392 7 36.267V32.6667H4.08333C3.00037 32.6667 1.96175 32.2365 1.19598 31.4707C0.430207 30.7049 0 29.6663 0 28.5833L0 6.41666ZM4.08333 5.83333C3.92862 5.83333 3.78025 5.89479 3.67085 6.00418C3.56146 6.11358 3.5 6.26195 3.5 6.41666V28.5833C3.5 28.9053 3.76133 29.1667 4.08333 29.1667H8.75C9.21413 29.1667 9.65925 29.351 9.98744 29.6792C10.3156 30.0074 10.5 30.4525 10.5 30.9167V36.0243L16.8467 29.68C17.1745 29.3517 17.6194 29.1671 18.0833 29.1667H33.25C33.4047 29.1667 33.5531 29.1052 33.6625 28.9958C33.7719 28.8864 33.8333 28.738 33.8333 28.5833V6.41666C33.8333 6.26195 33.7719 6.11358 33.6625 6.00418C33.5531 5.89479 33.4047 5.83333 33.25 5.83333H4.08333ZM51.9167 19.8333H43.75C43.2859 19.8333 42.8407 19.649 42.5126 19.3208C42.1844 18.9926 42 18.5475 42 18.0833C42 17.6192 42.1844 17.1741 42.5126 16.8459C42.8407 16.5177 43.2859 16.3333 43.75 16.3333H51.9167C54.1707 16.3333 56 18.1627 56 20.4167V42.5833C56 43.6663 55.5698 44.7049 54.804 45.4707C54.0382 46.2365 52.9996 46.6667 51.9167 46.6667H49V50.267C48.9998 50.9392 48.8003 51.5963 48.4267 52.1551C48.0531 52.714 47.5222 53.1495 46.9012 53.4068C46.2801 53.664 45.5967 53.7313 44.9374 53.6002C44.2781 53.4691 43.6724 53.1455 43.197 52.6703L37.191 46.6667H25.0833C24.0004 46.6667 22.9618 46.2365 22.196 45.4707C21.4302 44.7049 21 43.6663 21 42.5833V39.165C21 38.7009 21.1844 38.2557 21.5126 37.9276C21.8408 37.5994 22.2859 37.415 22.75 37.415C23.2141 37.415 23.6592 37.5994 23.9874 37.9276C24.3156 38.2557 24.5 38.7009 24.5 39.165V42.5833C24.5 42.9053 24.7613 43.1667 25.0833 43.1667H37.9167C38.381 43.1667 38.8267 43.351 39.1533 43.68L45.5 50.0243V44.9167C45.5 44.4525 45.6844 44.0074 46.0126 43.6792C46.3407 43.351 46.7859 43.1667 47.25 43.1667H51.9167C52.0714 43.1667 52.2197 43.1052 52.3291 42.9958C52.4385 42.8864 52.5 42.738 52.5 42.5833V20.4167C52.5 20.262 52.4385 20.1136 52.3291 20.0042C52.2197 19.8948 52.0714 19.8333 51.9167 19.8333ZM29.2367 12.32L17.57 23.9867C17.408 24.1498 17.2153 24.2792 17.0031 24.3676C16.7908 24.4559 16.5632 24.5014 16.3333 24.5014C16.1034 24.5014 15.8758 24.4559 15.6636 24.3676C15.4513 24.2792 15.2587 24.1498 15.0967 23.9867L9.26333 18.1533C9.10093 17.9909 8.97211 17.7981 8.88422 17.5859C8.79633 17.3738 8.75109 17.1463 8.75109 16.9167C8.75109 16.687 8.79633 16.4596 8.88422 16.2474C8.97211 16.0352 9.10093 15.8424 9.26333 15.68C9.42573 15.5176 9.61853 15.3888 9.83072 15.3009C10.0429 15.213 10.2703 15.1678 10.5 15.1678C10.7297 15.1678 10.9571 15.213 11.1693 15.3009C11.3815 15.3888 11.5743 15.5176 11.7367 15.68L16.3333 20.2743L26.7633 9.84666C26.9257 9.68426 27.1185 9.55544 27.3307 9.46755C27.5429 9.37965 27.7703 9.33442 28 9.33442C28.2297 9.33442 28.4571 9.37965 28.6693 9.46755C28.8815 9.55544 29.0743 9.68426 29.2367 9.84666C29.3991 10.0091 29.5279 10.2019 29.6158 10.414C29.7037 10.6262 29.7489 10.8537 29.7489 11.0833C29.7489 11.313 29.7037 11.5404 29.6158 11.7526C29.5279 11.9648 29.3991 12.1576 29.2367 12.32Z" fill="white"/>
</svg>
