<svg width="51" height="51" viewBox="0 0 51 51" fill="none" xmlns="http://www.w3.org/2000/svg">
<path d="M40.2857 42.5L28.4877 30.702L30.7423 28.4474L42.5403 40.2454L40.2857 42.5ZM10.7567 42.5L8.49995 40.2454L23.2857 25.4596L16.9745 19.1909L15.8142 20.3511L13.7997 18.2962V22.1212L12.6395 23.2815L7.06982 17.7119L8.23007 16.5516H12.0551L10.0129 14.5477L14.6136 9.94712C15.1037 9.45695 15.6407 9.09287 16.2243 8.85487C16.8066 8.61829 17.4278 8.49999 18.088 8.49999C18.7467 8.49999 19.3679 8.61829 19.9516 8.85487C20.5352 9.09145 21.0715 9.45554 21.5602 9.94712L18.0625 13.4449L20.3915 15.7739L19.2312 16.9341L25.5425 23.2029L30.9761 17.7671C30.6432 17.2968 30.4122 16.8151 30.2833 16.3221C30.1544 15.8291 30.09 15.288 30.09 14.6986C30.09 12.9632 30.6913 11.4941 31.8941 10.2914C33.0968 9.08862 34.5659 8.48724 36.3013 8.48724C36.6697 8.48724 37.0238 8.51345 37.3638 8.56587C37.7067 8.61687 38.0445 8.7217 38.3775 8.88037L33.9766 13.2812L37.7187 17.0234L42.1196 12.6246C42.2853 12.9561 42.3923 13.2926 42.4405 13.634C42.4886 13.9768 42.5127 14.3317 42.5127 14.6986C42.5127 16.434 41.9106 17.9031 40.7065 19.1059C39.5051 20.31 38.0367 20.9121 36.3013 20.9121C35.712 20.9121 35.1708 20.8491 34.6778 20.723C34.1848 20.5969 33.7032 20.3639 33.2328 20.0239L10.7567 42.5Z" fill="white"/>
</svg>
