<svg width="187" height="75" viewBox="0 0 187 75" fill="none" xmlns="http://www.w3.org/2000/svg">
<path fill-rule="evenodd" clip-rule="evenodd" d="M90.5433 28.8015C92.2482 26.6887 94.9002 24.9401 98.0476 24.9401C105.144 24.9401 110.725 30.8124 110.725 38.0544C110.725 45.6024 105.115 51.1832 98.3828 51.1832C94.7982 51.1832 92.0588 49.3472 91.0533 47.8172H90.9513V58.906C90.9513 58.906 90.9222 59.0372 90.8785 59.0809C90.8348 59.1246 90.7619 59.1538 90.7036 59.1538H84.3942C84.3942 59.1538 84.2631 59.1246 84.2193 59.0809C84.1756 59.0372 84.1465 58.9643 84.1465 58.906V25.2024C84.1465 25.2024 84.1756 25.0712 84.2193 25.0275C84.2631 24.9838 84.3359 24.9547 84.3942 24.9547H90.2956C90.2956 24.9547 90.4268 24.9838 90.4705 25.0275C90.5142 25.0712 90.5433 25.1441 90.5433 25.2024V28.8161V28.8015ZM97.5085 44.7572C96.9839 44.7718 96.4593 44.7281 95.9348 44.6261C94.6379 44.3492 93.443 43.7081 92.5105 42.7464C91.5779 41.7992 90.9513 40.5898 90.7182 39.2784C90.6453 38.8995 90.6162 38.5206 90.6016 38.1418C90.6016 37.7192 90.6308 37.2966 90.7036 36.8741C90.9368 35.5627 91.5633 34.3532 92.4959 33.4061C93.4285 32.4589 94.6088 31.8032 95.9202 31.5264C96.4448 31.4098 96.9693 31.3661 97.4939 31.3807C98.3536 31.3807 99.1987 31.5701 99.9856 31.9052C100.787 32.2404 101.501 32.7358 102.113 33.3624C102.725 33.9889 103.191 34.7175 103.512 35.5189C103.832 36.3204 103.993 37.1801 103.978 38.0544C103.978 38.9286 103.832 39.7884 103.512 40.5898C103.191 41.3912 102.71 42.1344 102.113 42.7609C101.501 43.3875 100.787 43.8829 99.9856 44.2181C99.1987 44.5532 98.3536 44.7426 97.5085 44.7572Z" fill="#5A31F4"/>
<path d="M49.568 29.9965C48.1109 26.9365 45.3423 24.9693 41.1749 24.9693C39.8926 24.9985 38.6395 25.3045 37.5029 25.8873C36.3663 26.4702 35.3755 27.3153 34.6178 28.3353L34.472 28.5247V16.5325C34.472 16.5325 34.4429 16.4013 34.3992 16.343C34.3555 16.2993 34.2826 16.2702 34.2098 16.2702H28.3229C28.3229 16.2702 28.1918 16.2993 28.1481 16.343C28.1043 16.3868 28.0752 16.4596 28.0752 16.5325V50.921C28.0752 50.921 28.1043 51.0521 28.1481 51.0958C28.1918 51.1396 28.2646 51.1687 28.3229 51.1687H34.6323C34.6323 51.1687 34.7635 51.1396 34.8218 51.0958C34.8655 51.0521 34.8946 50.9793 34.8946 50.921V36.2622C34.8946 33.4062 36.7889 31.3953 39.8343 31.3953C43.1566 31.3953 44.0017 34.1347 44.0017 36.9179V50.921C44.0017 50.921 44.0309 51.0521 44.0746 51.0958C44.1183 51.1396 44.1912 51.1687 44.2495 51.1687H50.5443C50.5443 51.1687 50.6754 51.1396 50.7337 51.0958C50.7774 51.0521 50.8066 50.9793 50.8066 50.921V36.0727C50.8066 35.5627 50.8066 35.0673 50.7337 34.5864C50.6317 32.9982 50.2237 31.439 49.568 29.9965Z" fill="#5A31F4"/>
<path d="M18.0796 35.0966C18.0796 35.0966 14.8739 34.3389 13.6936 34.0329C12.5133 33.7269 10.4442 33.0858 10.4442 31.5266C10.4442 29.9675 12.1053 29.4721 13.7956 29.4721C15.4859 29.4721 17.3656 29.88 17.5113 31.7598C17.5113 31.8326 17.555 31.8909 17.5988 31.9346C17.6425 31.9783 17.7153 32.0075 17.7882 32.0075L24.0102 31.9783C24.0102 31.9783 24.083 31.9783 24.1122 31.9492C24.1413 31.9346 24.1705 31.92 24.1996 31.8909C24.2287 31.8618 24.2433 31.8326 24.2579 31.8035C24.2579 31.7743 24.2725 31.7306 24.2579 31.7015C23.879 25.6981 18.6042 23.5561 13.7519 23.5561C7.99619 23.5269 3.78506 27.3301 3.78506 31.5266C3.78506 34.5866 4.64477 37.4572 11.4496 39.4535C12.6445 39.8032 14.2619 40.2549 15.6753 40.6483C17.3802 41.1292 18.2982 41.8432 18.2982 42.9652C18.2982 44.2766 16.4039 45.1946 14.5388 45.1946C11.843 45.1946 9.91962 44.1892 9.75933 42.3969C9.75933 42.324 9.71562 42.2657 9.67191 42.222C9.62819 42.1783 9.55533 42.1492 9.49705 42.1492L3.28963 42.1783C3.28963 42.1783 3.21677 42.1783 3.18763 42.1929C3.15849 42.1929 3.12934 42.222 3.1002 42.2512C3.07106 42.2803 3.05649 42.3095 3.04192 42.3386C3.04192 42.3677 3.02734 42.4115 3.02734 42.4406C3.31877 48.1089 8.78305 51.1543 13.883 51.1543C21.4747 51.1543 24.9136 46.8849 24.9136 42.8777C24.9136 40.998 24.491 36.714 18.1088 35.082L18.0796 35.0966Z" fill="#5A31F4"/>
<path d="M65.4664 23.4685C59.5795 23.4685 56.6507 25.4648 54.2901 27.0676L54.2172 27.1114C54.1007 27.1988 54.0132 27.3154 53.9841 27.4611C53.9549 27.6068 53.9841 27.7525 54.0424 27.8836L56.3738 31.8908C56.4175 31.9636 56.4758 32.0365 56.5487 32.0802C56.6215 32.1239 56.7089 32.1676 56.7818 32.1822C56.8692 32.1968 56.9567 32.1822 57.0295 32.1822C57.1169 32.1531 57.1898 32.1239 57.2481 32.0656L57.4375 31.9199C58.6469 30.8999 60.5849 29.5448 65.2915 29.1805C67.9144 28.9765 70.1729 29.6614 71.8341 31.2059C73.6701 32.8962 74.7629 35.6211 74.7629 38.5062C74.7629 43.8102 71.6446 47.147 66.6175 47.2053C62.4792 47.1762 59.6961 45.0196 59.6961 41.843C59.6961 40.1528 60.4538 39.0453 61.9546 37.9525C62.0712 37.8651 62.1441 37.7485 62.1878 37.6173C62.2169 37.4862 62.1878 37.3405 62.1295 37.2093L60.0458 33.2605C60.0458 33.2605 59.9584 33.1293 59.8855 33.0711C59.8272 33.0273 59.7544 32.9836 59.6669 32.9545C59.5941 32.9253 59.5067 32.9253 59.4192 32.9399C59.3318 32.9399 59.2589 32.9836 59.1861 33.0273C56.8401 34.4116 53.9549 36.9616 54.1152 41.8576C54.3047 48.0796 59.4775 52.8445 66.2095 53.0339H67.0109C75.0106 52.7716 80.7809 46.841 80.7809 38.7831C80.7809 31.3954 75.3895 23.4831 65.4372 23.4831L65.4664 23.4685Z" fill="#5A31F4"/>
<path fill-rule="evenodd" clip-rule="evenodd" d="M123.737 16.3578H177.593C181.309 16.3578 184.325 19.3741 184.325 23.0898V52.5678C184.325 56.2835 181.309 59.2998 177.593 59.2998H123.737C120.021 59.2998 117.005 56.2835 117.005 52.5678V23.0898C117.005 19.3741 120.021 16.3578 123.737 16.3578ZM135.817 39.7158C140.305 39.7158 143.525 36.4372 143.525 31.8473C143.525 27.2573 140.305 23.9787 135.817 23.9787H127.89C127.802 23.9787 127.7 24.0224 127.642 24.0807C127.569 24.1536 127.54 24.241 127.54 24.3284V46.0981C127.54 46.1855 127.584 46.2875 127.642 46.3458C127.715 46.4187 127.802 46.4478 127.89 46.4478H130.877C130.964 46.4478 131.066 46.4041 131.125 46.3458C131.197 46.2729 131.227 46.1855 131.227 46.0981V40.0655C131.227 39.9781 131.27 39.8761 131.329 39.8178C131.401 39.745 131.489 39.7158 131.576 39.7158H135.817ZM135.583 27.2864C138.031 27.2864 139.824 29.2098 139.824 31.8473C139.824 34.4847 138.017 36.4081 135.583 36.4081H131.576C131.489 36.4081 131.387 36.3644 131.329 36.3061C131.256 36.2332 131.227 36.1458 131.227 36.0584V27.6507C131.227 27.5633 131.27 27.4613 131.329 27.403C131.401 27.3301 131.489 27.301 131.576 27.301H135.583V27.2864ZM144.399 42.2804C144.37 41.581 144.516 40.8815 144.822 40.2404C145.128 39.5992 145.594 39.0601 146.162 38.6521C147.328 37.7778 149.12 37.3261 151.787 37.2241L154.614 37.1221V36.2915C154.614 34.6304 153.492 33.9164 151.699 33.9164C149.907 33.9164 148.771 34.5575 148.494 35.5921C148.479 35.665 148.421 35.7232 148.363 35.7815C148.304 35.8253 148.231 35.8544 148.144 35.8398H145.361C145.361 35.8398 145.259 35.8398 145.215 35.8107C145.171 35.7961 145.128 35.7524 145.099 35.7232C145.069 35.6795 145.04 35.6358 145.026 35.5921C145.026 35.5484 145.011 35.4901 145.026 35.4464C145.448 32.9838 147.488 31.1041 151.845 31.1041C156.464 31.1041 158.14 33.2607 158.14 37.3698V46.0981C158.14 46.0981 158.14 46.1855 158.111 46.2292C158.096 46.2729 158.067 46.3167 158.038 46.3458C158.009 46.375 157.965 46.4041 157.921 46.4187C157.878 46.4332 157.834 46.4478 157.79 46.4478H154.978C154.978 46.4478 154.891 46.4478 154.847 46.4187C154.803 46.4041 154.759 46.375 154.73 46.3458C154.701 46.3167 154.672 46.2729 154.657 46.2292C154.643 46.1855 154.628 46.1418 154.628 46.0981V45.4424C154.628 45.4424 154.628 45.3258 154.585 45.2821C154.555 45.2384 154.512 45.1947 154.453 45.1801C154.395 45.1655 154.337 45.151 154.293 45.1801C154.249 45.2092 154.191 45.2238 154.147 45.2675C153.302 46.1855 151.933 46.8558 149.761 46.8558C146.57 46.8558 144.443 45.1947 144.443 42.3095L144.399 42.2804ZM154.614 40.3861V39.7158L150.956 39.9052C149.033 40.0072 147.896 40.8087 147.896 42.1492C147.896 43.3732 148.931 44.0435 150.723 44.0435C153.171 44.0435 154.614 42.7175 154.614 40.3861ZM160.938 50.5132V53.0487C160.938 53.1361 160.952 53.2089 161.011 53.2818C161.054 53.3547 161.127 53.3984 161.2 53.4275C161.695 53.5587 162.205 53.6315 162.73 53.6169C165.455 53.6169 167.947 52.6261 169.375 48.7355L175.64 32.0075C175.64 32.0075 175.669 31.891 175.64 31.8473C175.64 31.789 175.611 31.7307 175.582 31.687C175.553 31.6433 175.509 31.5995 175.451 31.5704C175.393 31.5413 175.349 31.5267 175.291 31.5267H172.376C172.303 31.5267 172.231 31.5558 172.172 31.5995C172.114 31.6433 172.07 31.7015 172.041 31.7744L168.588 42.3678C168.588 42.3678 168.515 42.499 168.457 42.5427C168.398 42.5864 168.325 42.601 168.253 42.601C168.18 42.601 168.107 42.5718 168.049 42.5427C167.99 42.499 167.947 42.4407 167.917 42.3678L163.939 31.7453C163.939 31.7453 163.867 31.6141 163.808 31.5704C163.75 31.5267 163.677 31.5121 163.604 31.5121H160.748C160.748 31.5121 160.632 31.5267 160.588 31.5558C160.544 31.585 160.501 31.6141 160.457 31.6724C160.428 31.7161 160.399 31.7744 160.399 31.8327C160.399 31.891 160.399 31.9493 160.413 31.993L166.271 47.0452C166.3 47.1181 166.3 47.2055 166.271 47.2929L166.081 47.8758C165.863 48.6044 165.411 49.2309 164.799 49.6681C164.187 50.1052 163.429 50.3238 162.686 50.2801C162.249 50.2801 161.812 50.2364 161.375 50.1635C161.317 50.1635 161.273 50.1635 161.215 50.1635C161.156 50.1635 161.113 50.2072 161.069 50.2364C161.025 50.2655 160.996 50.3092 160.967 50.3675C160.938 50.4112 160.938 50.4695 160.938 50.5278V50.5132Z" fill="#5A31F4"/>
</svg>
