<svg width="40" height="40" viewBox="0 0 40 40" fill="none" xmlns="http://www.w3.org/2000/svg">
<rect x="0.5" y="0.5" width="39" height="39" rx="19.5" stroke="white"/>
<path fill-rule="evenodd" clip-rule="evenodd" d="M15.4986 13.9992C15.4986 14.8268 14.8269 15.4985 13.9993 15.4985C13.1717 15.4985 12.5 14.8269 12.5 13.9993C12.5 13.1717 13.1717 12.5 13.9993 12.5C14.8269 12.5 15.4986 13.1716 15.4986 13.9992ZM24.1823 16.1505C22.729 16.1505 21.4286 16.6812 20.5062 17.8527V16.4634H17.5006V26.4775H20.5062V21.0622C20.5062 19.9177 21.5547 18.8012 22.868 18.8012C24.1813 18.8012 24.5052 19.9177 24.5052 21.0342V26.4765H27.4998V20.8113C27.4997 16.8761 25.6366 16.1505 24.1823 16.1505ZM12.5165 26.4765H15.5111V16.4954H12.5165V26.4765Z" fill="white"/>
</svg>
