<svg width="187" height="75" viewBox="0 0 187 75" fill="none" xmlns="http://www.w3.org/2000/svg">
<path d="M72.2245 27.7554H62.9638C62.3304 27.7554 61.7913 28.2002 61.6922 28.8056L57.9468 51.7675C57.8812 52.1748 58.1691 52.5562 58.5904 52.6203C58.6299 52.6261 58.67 52.6294 58.7109 52.6294H63.1319C63.7661 52.6294 64.3052 52.1832 64.4036 51.5778L65.4141 45.3844C65.5119 44.7796 66.0509 44.3335 66.6844 44.3329H69.6162C75.7167 44.3329 79.2371 41.4786 80.1565 35.822C80.571 33.3472 80.1739 31.4028 78.9759 30.0411C77.6594 28.546 75.325 27.7547 72.2258 27.7547L72.2245 27.7554ZM73.2926 36.1419C72.7863 39.3548 70.247 39.3548 67.792 39.3548H66.3945L67.3749 33.3544C67.4344 32.9918 67.7572 32.7243 68.1369 32.7243H68.7771C70.4492 32.7243 72.0269 32.7243 72.8419 33.6464C73.3281 34.1961 73.4767 35.0133 73.2912 36.1419H73.2926ZM99.9065 36.0383H95.4721C95.0924 36.0383 94.769 36.3057 94.71 36.6683L94.5138 37.8675L94.2038 37.433C93.2435 36.0855 91.1026 35.6355 88.9658 35.6355C84.0652 35.6355 79.8793 39.2247 79.0643 44.259C78.6404 46.7701 79.2431 49.1717 80.7163 50.8461C82.0677 52.3859 84.0016 53.0276 86.3019 53.0276C90.2508 53.0276 92.4399 50.5729 92.4399 50.5729L92.2424 51.7643C92.1747 52.1716 92.462 52.5543 92.8825 52.619C92.9227 52.6255 92.9629 52.6281 93.0031 52.6281H96.9976C97.6317 52.6281 98.1708 52.1819 98.2692 51.5765L100.666 36.9001C100.734 36.4948 100.448 36.1127 100.028 36.048C99.9882 36.0415 99.9474 36.0383 99.9065 36.0383ZM93.725 44.384C93.2971 46.8335 91.2861 48.4782 88.7213 48.4782C87.4336 48.4782 86.4043 48.0787 85.7434 47.3218C85.0878 46.57 84.8387 45.5003 85.0476 44.3089C85.4474 41.8801 87.4919 40.1817 90.0171 40.1817C91.2767 40.1817 92.3 40.5864 92.9743 41.3498C93.65 42.121 93.9178 43.1971 93.7243 44.3834L93.725 44.384ZM123.525 36.0383H119.069C118.642 36.0389 118.243 36.2435 118.003 36.5841L111.857 45.3384L109.252 36.926C109.087 36.3989 108.586 36.0383 108.017 36.0383H103.637C103.211 36.037 102.864 36.3705 102.863 36.7829C102.863 36.8658 102.877 36.9474 102.905 37.0257L107.813 50.9543L103.199 57.2532C102.951 57.5893 103.033 58.0555 103.381 58.2938C103.511 58.3838 103.668 58.4317 103.828 58.4317H108.279C108.701 58.4317 109.096 58.2329 109.337 57.8975L124.159 37.2096C124.402 36.871 124.315 36.4061 123.964 36.171C123.835 36.0843 123.682 36.0376 123.524 36.0376L123.525 36.0383Z" fill="#253B80"/>
<path d="M138.28 27.7554H129.018C128.386 27.7554 127.846 28.2009 127.748 28.8056L124.003 51.7675C123.936 52.1742 124.223 52.5556 124.643 52.6197C124.683 52.6255 124.723 52.6287 124.763 52.6287H129.517C129.96 52.6287 130.336 52.316 130.405 51.8932L131.468 45.3844C131.566 44.7796 132.105 44.3335 132.738 44.3329H135.669C141.771 44.3329 145.29 41.4786 146.21 35.822C146.626 33.3472 146.226 31.4028 145.028 30.0411C143.714 28.546 141.38 27.7547 138.281 27.7547L138.28 27.7554ZM139.348 36.1419C138.844 39.3548 136.304 39.3548 133.848 39.3548H132.452L133.433 33.3544C133.492 32.9918 133.814 32.7243 134.194 32.7243H134.834C136.505 32.7243 138.084 32.7243 138.899 33.6464C139.385 34.1961 139.533 35.0133 139.347 36.1419H139.348ZM165.961 36.0383H161.529C161.15 36.037 160.826 36.3051 160.769 36.6683L160.572 37.8675L160.261 37.433C159.301 36.0856 157.161 35.6355 155.024 35.6355C150.124 35.6355 145.94 39.2247 145.124 44.259C144.702 46.7701 145.302 49.1717 146.775 50.8461C148.129 52.3859 150.06 53.0276 152.36 53.0276C156.309 53.0276 158.498 50.5729 158.498 50.5729L158.301 51.7643C158.233 52.1716 158.521 52.5543 158.941 52.619C158.982 52.6255 159.023 52.6287 159.064 52.6281H163.057C163.691 52.6281 164.229 52.1819 164.328 51.5765L166.726 36.9001C166.791 36.4922 166.501 36.1102 166.08 36.0474C166.04 36.0415 166.001 36.0383 165.961 36.0389V36.0383ZM159.78 44.384C159.354 46.8335 157.341 48.4782 154.776 48.4782C153.491 48.4782 152.459 48.0787 151.798 47.3218C151.142 46.57 150.896 45.5003 151.102 44.3089C151.505 41.8801 153.546 40.1817 156.072 40.1817C157.331 40.1817 158.354 40.5864 159.029 41.3498C159.707 42.121 159.975 43.1971 159.779 44.3834L159.78 44.384ZM171.189 28.3854L167.388 51.7675C167.322 52.1742 167.608 52.5556 168.028 52.6197C168.068 52.6255 168.109 52.6287 168.149 52.6287H171.97C172.605 52.6287 173.144 52.1832 173.242 51.5772L176.99 28.6166C177.056 28.2093 176.769 27.8272 176.347 27.7631C176.308 27.7573 176.268 27.7541 176.228 27.7541H171.949C171.569 27.7554 171.247 28.0228 171.188 28.3854H171.189Z" fill="#179BD7"/>
<path d="M19.489 57.0914L20.1975 52.7414L18.6198 52.7058H11.0869L16.3216 20.6108C16.3537 20.4081 16.5345 20.2585 16.7468 20.2598H29.4488C33.6656 20.2598 36.5752 21.1081 38.0946 22.7832C38.8071 23.5686 39.2605 24.3896 39.4802 25.2929C39.7105 26.2409 39.7145 27.3734 39.4895 28.7551L39.4735 28.8561V29.7413L40.186 30.1317C40.7297 30.3979 41.2186 30.7585 41.6284 31.1949C42.2378 31.8664 42.6315 32.7205 42.7983 33.7325C42.9704 34.7737 42.9135 36.0124 42.6315 37.4143C42.3067 39.0272 41.7811 40.4323 41.0719 41.5816C40.4458 42.6118 39.604 43.5034 38.6009 44.2001C37.6587 44.847 36.5384 45.3378 35.2727 45.6525C34.0459 45.9614 32.647 46.1174 31.1129 46.1174H30.1244C29.4173 46.1174 28.7309 46.3635 28.1918 46.8051C27.6534 47.2512 27.2965 47.867 27.1847 48.5436L27.1103 48.9354L25.8594 56.6018L25.8025 56.8835C25.7878 56.9729 25.7617 57.0169 25.7242 57.0473C25.6873 57.0765 25.6418 57.0927 25.5943 57.0933H19.491L19.489 57.0914Z" fill="#253B80"/>
<path d="M40.8596 28.9578C40.8214 29.1922 40.7785 29.4318 40.7296 29.6779C39.0548 37.9938 33.324 40.8662 26.0047 40.8662H22.2781C21.3827 40.8662 20.6287 41.4949 20.4894 42.3483L18.5816 54.0488L18.0412 57.3653C17.9588 57.8684 18.3137 58.3404 18.834 58.4201C18.8829 58.4279 18.9325 58.4311 18.9827 58.4311H25.5922C26.375 58.4311 27.04 57.8814 27.1632 57.1348L27.2281 56.8104L28.4723 49.1743L28.552 48.7554C28.6739 48.0062 29.3402 47.4565 30.123 47.4565H31.1114C37.5153 47.4565 42.5283 44.9429 43.9935 37.6681C44.6056 34.6294 44.2888 32.0918 42.669 30.3072C42.1553 29.7549 41.5426 29.2984 40.8596 28.9585V28.9578Z" fill="#179BD7"/>
<path d="M39.1073 28.2818C38.5722 28.1322 38.0285 28.0156 37.478 27.9321C36.3912 27.7709 35.2923 27.6932 34.1927 27.7003H24.237C23.4542 27.7003 22.7879 28.2513 22.6673 28.9992L20.5492 41.9694L20.4883 42.3476C20.6249 41.4942 21.3843 40.8648 22.2769 40.8654H26.0035C33.3228 40.8654 39.053 37.9911 40.7285 29.6771C40.7787 29.4311 40.8209 29.1915 40.8584 28.9571C40.4164 28.7331 39.9557 28.5453 39.4809 28.3957C39.3564 28.3556 39.2318 28.318 39.1059 28.2818H39.1073Z" fill="#222D65"/>
<path d="M22.6674 28.9992C22.7866 28.2507 23.4535 27.699 24.237 27.7016H34.1927C35.372 27.7016 36.4729 27.7761 37.4781 27.9334C38.1578 28.037 38.8287 28.1911 39.4837 28.3957C39.9779 28.5544 40.4372 28.7415 40.8611 28.9571C41.3594 25.884 40.8571 23.792 39.1388 21.8973C37.243 19.8117 33.8238 18.9188 29.4489 18.9188H16.747C15.853 18.9188 15.0909 19.5475 14.953 20.4022L9.66206 52.8281C9.56764 53.4038 9.97412 53.9444 10.5694 54.0357C10.6257 54.0442 10.6819 54.0487 10.7389 54.0487H18.5805L20.5493 41.9701L22.6674 28.9999V28.9992Z" fill="#253B80"/>
</svg>
