<svg width="54" height="56" viewBox="0 0 54 56" fill="none" xmlns="http://www.w3.org/2000/svg">
<path d="M0 6.41536C0 4.15903 1.764 2.33203 3.9375 2.33203H32.0625C34.2382 2.33203 36 4.15903 36 6.41536V28.582C36 29.665 35.5851 30.7036 34.8468 31.4694C34.1083 32.2352 33.1068 32.6654 32.0625 32.6654H18.1373L12.3458 38.669C11.8873 39.1442 11.3033 39.4678 10.6675 39.5989C10.0318 39.73 9.37275 39.6627 8.77387 39.4055C8.17499 39.1482 7.66308 38.7127 7.30285 38.1538C6.94262 37.595 6.75022 36.9379 6.75 36.2657V32.6654H3.9375C2.89321 32.6654 1.89169 32.2352 1.15327 31.4694C0.414842 30.7036 0 29.665 0 28.582V6.41536ZM3.9375 5.83203C3.78831 5.83203 3.64524 5.89349 3.53975 6.00288C3.43427 6.11228 3.375 6.26065 3.375 6.41536V28.582C3.375 28.904 3.627 29.1654 3.9375 29.1654H8.4375C8.88505 29.1654 9.31428 29.3497 9.63075 29.6779C9.94719 30.0061 10.125 30.4512 10.125 30.9154V36.023L16.245 29.6787C16.5611 29.3504 16.9901 29.1658 17.4375 29.1654H32.0625C32.2117 29.1654 32.3548 29.1039 32.4603 28.9945C32.5658 28.8851 32.625 28.7367 32.625 28.582V6.41536C32.625 6.26065 32.5658 6.11228 32.4603 6.00288C32.3548 5.89349 32.2117 5.83203 32.0625 5.83203H3.9375ZM50.0625 19.832H42.1875C41.74 19.832 41.3107 19.6477 40.9943 19.3195C40.6778 18.9913 40.5 18.5462 40.5 18.082C40.5 17.6179 40.6778 17.1728 40.9943 16.8446C41.3107 16.5164 41.74 16.332 42.1875 16.332H50.0625C52.236 16.332 54 18.1614 54 20.4154V42.582C54 43.665 53.5852 44.7036 52.8467 45.4694C52.1083 46.2352 51.1068 46.6654 50.0625 46.6654H47.25V50.2657C47.2498 50.9379 47.0574 51.595 46.6972 52.1538C46.3369 52.7127 45.825 53.1482 45.2262 53.4055C44.6272 53.6627 43.9682 53.73 43.3325 53.5989C42.6967 53.4678 42.1127 53.1442 41.6542 52.669L35.8628 46.6654H24.1875C23.1432 46.6654 22.1417 46.2352 21.4033 45.4694C20.6648 44.7036 20.25 43.665 20.25 42.582V39.1637C20.25 38.6996 20.4278 38.2544 20.7443 37.9263C21.0608 37.5981 21.49 37.4137 21.9375 37.4137C22.385 37.4137 22.8142 37.5981 23.1307 37.9263C23.4472 38.2544 23.625 38.6996 23.625 39.1637V42.582C23.625 42.904 23.877 43.1654 24.1875 43.1654H36.5625C37.0102 43.1654 37.44 43.3497 37.755 43.6787L43.875 50.023V44.9154C43.875 44.4512 44.0528 44.0061 44.3693 43.6779C44.6857 43.3497 45.115 43.1654 45.5625 43.1654H50.0625C50.2117 43.1654 50.3547 43.1039 50.4602 42.9945C50.5657 42.8851 50.625 42.7367 50.625 42.582V20.4154C50.625 20.2607 50.5657 20.1123 50.4602 20.0029C50.3547 19.8935 50.2117 19.832 50.0625 19.832ZM28.1925 12.3187L16.9425 23.9854C16.7863 24.1485 16.6005 24.2779 16.3958 24.3663C16.1911 24.4546 15.9717 24.5001 15.75 24.5001C15.5283 24.5001 15.3088 24.4546 15.1042 24.3663C14.8995 24.2779 14.7137 24.1485 14.5575 23.9854L8.9325 18.152C8.7759 17.9896 8.65168 17.7968 8.56693 17.5846C8.48218 17.3725 8.43855 17.145 8.43855 16.9154C8.43855 16.6857 8.48218 16.4583 8.56693 16.2461C8.65168 16.0339 8.7759 15.8411 8.9325 15.6787C9.0891 15.5163 9.27501 15.3875 9.47962 15.2996C9.68423 15.2117 9.9035 15.1665 10.125 15.1665C10.3465 15.1665 10.5658 15.2117 10.7704 15.2996C10.975 15.3875 11.1609 15.5163 11.3175 15.6787L15.75 20.273L25.8075 9.84536C25.9641 9.68296 26.15 9.55414 26.3546 9.46625C26.5592 9.37835 26.7785 9.33312 27 9.33312C27.2215 9.33312 27.4408 9.37835 27.6454 9.46625C27.85 9.55414 28.0359 9.68296 28.1925 9.84536C28.3491 10.0078 28.4733 10.2006 28.5581 10.4127C28.6429 10.6249 28.6864 10.8524 28.6864 11.082C28.6864 11.3117 28.6429 11.5391 28.5581 11.7513C28.4733 11.9635 28.3491 12.1563 28.1925 12.3187Z" fill="white"/>
</svg>
