<svg width="54" height="54" viewBox="0 0 54 54" fill="none" xmlns="http://www.w3.org/2000/svg">
<path fill-rule="evenodd" clip-rule="evenodd" d="M8.1001 22.2523C8.1001 20.8201 8.66902 19.4466 9.68172 18.4339C10.6944 17.4212 12.0679 16.8523 13.5001 16.8523H39.4201C40.8523 16.8523 42.2258 17.4212 43.2385 18.4339C44.2512 19.4466 44.8201 20.8201 44.8201 22.2523V33.0523C44.8201 34.4845 44.2512 35.858 43.2385 36.8707C42.2258 37.8834 40.8523 38.4523 39.4201 38.4523H13.5001C12.0679 38.4523 10.6944 37.8834 9.68172 36.8707C8.66902 35.858 8.1001 34.4845 8.1001 33.0523V22.2523ZM13.5001 19.0123C12.6408 19.0123 11.8167 19.3537 11.2091 19.9613C10.6015 20.5689 10.2601 21.393 10.2601 22.2523V33.0523C10.2601 33.9116 10.6015 34.7357 11.2091 35.3433C11.8167 35.9509 12.6408 36.2923 13.5001 36.2923H39.4201C40.2794 36.2923 41.1035 35.9509 41.7111 35.3433C42.3187 34.7357 42.6601 33.9116 42.6601 33.0523V22.2523C42.6601 21.393 42.3187 20.5689 41.7111 19.9613C41.1035 19.3537 40.2794 19.0123 39.4201 19.0123H13.5001Z" fill="white"/>
<path d="M30.7718 27.6523C30.772 28.2196 30.6604 28.7814 30.4434 29.3056C30.2264 29.8298 29.9083 30.3061 29.5073 30.7073C29.1063 31.1086 28.6301 31.4269 28.106 31.6441C27.582 31.8614 27.0202 31.9732 26.4529 31.9734C25.8856 31.9735 25.3238 31.8619 24.7996 31.645C24.2755 31.428 23.7991 31.1099 23.3979 30.7089C22.9966 30.3078 22.6783 29.8317 22.4611 29.3076C22.2439 28.7835 22.132 28.2218 22.1318 27.6545C22.1318 26.5087 22.587 25.4099 23.3971 24.5998C24.2073 23.7896 25.3061 23.3345 26.4518 23.3345C27.5976 23.3345 28.6964 23.7896 29.5065 24.5998C30.3167 25.4099 30.7718 26.5087 30.7718 27.6545" fill="white"/>
<path fill-rule="evenodd" clip-rule="evenodd" d="M26.4536 29.8123C26.7428 29.8213 27.031 29.7721 27.3008 29.6676C27.5707 29.563 27.8168 29.4054 28.0246 29.2039C28.2323 29.0024 28.3975 28.7612 28.5102 28.4947C28.6229 28.2281 28.6809 27.9416 28.6808 27.6522C28.6806 27.3628 28.6223 27.0764 28.5093 26.81C28.3963 26.5436 28.231 26.3025 28.023 26.1013C27.8151 25.9 27.5688 25.7426 27.2988 25.6383C27.0288 25.5341 26.7407 25.4851 26.4514 25.4944C25.8785 25.4944 25.3291 25.722 24.9241 26.1271C24.519 26.5322 24.2914 27.0816 24.2914 27.6544C24.2914 28.2273 24.519 28.7767 24.9241 29.1818C25.3291 29.5869 25.8785 29.8144 26.4514 29.8144M26.4514 31.9744C27.0267 31.9872 27.5987 31.8848 28.1339 31.6734C28.6692 31.462 29.1567 31.1458 29.568 30.7434C29.9794 30.341 30.3061 29.8604 30.5292 29.33C30.7522 28.7995 30.8671 28.2299 30.8669 27.6544C30.8668 27.079 30.7517 26.5094 30.5283 25.979C30.305 25.4487 29.978 24.9683 29.5665 24.5661C29.155 24.1639 28.6672 23.8479 28.1319 23.6368C27.5966 23.4256 27.0245 23.3236 26.4492 23.3366C25.3035 23.3366 24.2047 23.7917 23.3945 24.6019C22.5844 25.4121 22.1292 26.5109 22.1292 27.6566C22.1292 28.8023 22.5844 29.9011 23.3945 30.7113C24.2047 31.5215 25.3035 31.9766 26.4492 31.9766M43.8394 28.5616C44.1144 28.6421 44.3461 28.8286 44.4836 29.0799C44.6212 29.3313 44.6532 29.6269 44.5727 29.9019C44.4922 30.1769 44.3058 30.4086 44.0545 30.5462C43.8031 30.6837 43.5074 30.7157 43.2324 30.6352H43.2281L43.2238 30.6331L43.2108 30.6288L43.172 30.618C42.9796 30.5545 42.7894 30.4846 42.6017 30.4084C42.0788 30.192 41.5689 29.9453 41.0746 29.6697C39.3231 28.6858 37.7196 27.459 36.3118 26.0258C34.8371 24.5613 33.6302 22.85 32.7456 20.9692C32.4875 20.417 32.266 19.8484 32.0825 19.2672C32.0164 19.0555 31.958 18.8415 31.9076 18.6256L31.8989 18.5824L31.8946 18.5695V18.563L32.953 18.3513M43.8394 28.5616H43.8437H43.8394ZM8.25125 25.1812C8.35207 24.9131 8.55527 24.6961 8.81614 24.5778C8.94531 24.5192 9.08475 24.4867 9.2265 24.482C9.36825 24.4773 9.50954 24.5006 9.64229 24.5505L9.64877 24.5527L9.65957 24.557L9.69629 24.5721L9.82805 24.6261C10.5396 24.9308 11.2334 25.2755 11.906 25.6586C13.2128 26.4038 14.93 27.5572 16.5586 29.1902C17.9511 30.6069 19.1142 32.232 20.006 34.007C20.3666 34.7198 20.6812 35.455 20.9477 36.208L20.9952 36.3484L21.0082 36.3895L21.0125 36.4024V36.4068L19.98 36.72L21.0147 36.4089C21.0975 36.6833 21.0679 36.9794 20.9324 37.2319C20.7969 37.4845 20.5666 37.6729 20.2922 37.7557C20.0178 37.8385 19.7217 37.8088 19.4691 37.6733C19.2166 37.5378 19.0282 37.3076 18.9454 37.0332V37.0288L18.9389 37.0072C18.6975 36.315 18.4103 35.6396 18.0792 34.9855C17.2897 33.4122 16.26 31.9715 15.0272 30.7152C13.2889 28.9906 11.2464 27.6028 9.00293 26.622C8.97063 26.6087 8.93823 26.5958 8.90573 26.5831L8.88413 26.5744M8.25125 25.1812C8.20133 25.314 8.17804 25.4553 8.18272 25.597C8.18739 25.7388 8.21995 25.8782 8.27852 26.0074C8.3968 26.2683 8.61387 26.4715 8.88197 26.5723L8.25125 25.1812Z" fill="white"/>
<path d="M7.88399 9.45649C7.67575 9.24796 7.55888 8.96526 7.55908 8.67056C7.55928 8.37587 7.67655 8.09333 7.88507 7.88509C8.09359 7.67685 8.3763 7.55998 8.67099 7.56018C8.96569 7.56038 9.24823 7.67765 9.45647 7.88617L46.1138 44.5435C46.3221 44.7518 46.439 45.0342 46.439 45.3287C46.439 45.6232 46.3221 45.9056 46.1138 46.1138C45.9056 46.3221 45.6232 46.4391 45.3287 46.4391C45.0342 46.4391 44.7517 46.3221 44.5435 46.1138L7.88399 9.45649Z" fill="white"/>
<path fill-rule="evenodd" clip-rule="evenodd" d="M27 51.84C40.7182 51.84 51.84 40.7182 51.84 27C51.84 13.2818 40.7182 2.16 27 2.16C13.2818 2.16 2.16 13.2818 2.16 27C2.16 40.7182 13.2818 51.84 27 51.84ZM27 54C41.9126 54 54 41.9126 54 27C54 12.0874 41.9126 0 27 0C12.0874 0 0 12.0874 0 27C0 41.9126 12.0874 54 27 54Z" fill="white"/>
</svg>
