<svg width="186" height="75" viewBox="0 0 186 75" fill="none" xmlns="http://www.w3.org/2000/svg">
<path d="M142.034 2.45321L114.89 2.44621H114.882C114.861 2.44621 114.841 2.44971 114.82 2.44971C111.091 2.5631 106.446 5.53284 105.601 9.19478L92.764 65.594C91.9178 69.2901 94.2187 72.2975 97.9208 72.3527H126.437C130.082 72.1736 133.626 69.238 134.457 65.6177L147.294 9.21799C148.154 5.48468 145.798 2.45277 142.033 2.45277" fill="#01798A"/>
<path d="M92.7634 65.594L105.601 9.19476C106.446 5.53282 111.091 2.56308 114.82 2.44968L104.027 2.44312L84.5818 2.43961C80.8422 2.51536 76.1374 5.50611 75.2921 9.19563L62.4514 65.5944C61.6022 69.2905 63.907 72.2979 67.6065 72.3531H97.9207C94.2185 72.2979 91.9177 69.2905 92.7639 65.5944" fill="#024381"/>
<path d="M62.4517 65.5939L75.2923 9.19462C76.1381 5.50554 80.8429 2.51478 84.5821 2.4386L59.672 2.43247C55.9117 2.43247 51.0905 5.45738 50.2311 9.19462L37.3904 65.5939C37.3124 65.938 37.2687 66.2756 37.2432 66.6052V67.6512C37.4945 70.3455 39.5669 72.3074 42.5455 72.3525H67.6068C63.9073 72.2978 61.6025 69.2904 62.4517 65.5939Z" fill="#DD0228"/>
<path d="M85.1074 43.5351H85.5787C86.0117 43.5351 86.3032 43.3902 86.4399 43.1047L87.6648 41.2847H90.945L90.2611 42.4817H94.1943L93.6951 44.3161H89.015C88.4757 45.1213 87.8121 45.4996 87.0149 45.4549H84.5769L85.1069 43.5351M84.5681 46.1638H93.1858L92.6364 48.1567H89.1706L88.6419 50.0801H92.0143L91.4653 52.073H88.093L87.3094 54.9154C87.1154 55.3904 87.3707 55.6041 88.0705 55.5559H90.8189L90.3096 57.4079H85.0328C84.0328 57.4079 83.6893 56.8396 84.0032 55.7008L85.0051 52.0739H82.8498L83.3974 50.0809H85.5532L86.0818 48.1576H84.0213L84.569 46.1646L84.5681 46.1638ZM98.3223 41.2702L98.187 42.437C98.187 42.437 99.8123 41.2256 101.289 41.2256H106.743L104.657 48.7241C104.484 49.5814 103.742 50.0074 102.432 50.0074H96.2486L94.8006 55.2726C94.7168 55.555 94.8349 55.6995 95.1467 55.6995H96.3637L95.9166 57.3339H92.8238C91.6368 57.3339 91.143 56.9792 91.3387 56.2669L95.4315 41.2698H98.3228L98.3223 41.2702ZM102.942 43.3902H98.0728L97.4903 45.4138C97.4903 45.4138 98.3012 44.8328 99.6566 44.8118C101.008 44.7907 102.551 44.8118 102.551 44.8118L102.942 43.3902ZM101.177 48.084C101.537 48.1326 101.739 47.9912 101.763 47.6572L102.061 46.5906H97.1847L96.776 48.0836H101.177V48.084ZM97.8885 50.5069H100.699L100.647 51.7149H101.395C101.774 51.7149 101.961 51.5945 101.961 51.3572L102.183 50.5761H104.519L104.208 51.7153C103.943 52.665 103.244 53.1606 102.107 53.2092H100.609L100.602 55.2735C100.575 55.6045 100.876 55.7726 101.496 55.7726H102.903L102.449 57.4074H99.0733C98.127 57.4521 97.6627 57.0046 97.6728 56.0546L97.8885 50.5069ZM63.8267 31.2805C63.4453 33.1355 62.5616 34.5602 61.1908 35.5715C59.8322 36.5663 58.0804 37.0649 55.9347 37.0649C53.9157 37.0649 52.4359 36.5558 51.4914 35.5339C50.8362 34.808 50.5107 33.8855 50.5107 32.7708C50.5107 32.3098 50.5663 31.8142 50.677 31.2809L52.9628 20.338H56.4145L54.1604 31.1566C54.096 31.4284 54.0647 31.7069 54.0669 31.9858C54.0634 32.5401 54.2019 32.9941 54.4823 33.3487C54.891 33.8754 55.5547 34.1364 56.4789 34.1364C57.5411 34.1364 58.4159 33.8785 59.0954 33.3584C59.7749 32.8422 60.2185 32.1093 60.4173 31.1561L62.6789 20.3371H66.1134L63.8258 31.2809M78.3231 26.9758H81.0265L78.9086 36.7423H76.2105L78.3231 26.9758ZM79.1741 23.4176H81.9017L81.392 25.7884H78.6648L79.1741 23.4176ZM83.4199 35.9989C82.7126 35.3277 82.3555 34.4227 82.3524 33.2734C82.3524 33.0773 82.3643 32.8535 82.3907 32.6092C82.4167 32.3614 82.4498 32.1206 82.4961 31.8969C82.8167 30.3102 83.4997 29.0511 84.5513 28.1216C85.6017 27.189 86.8685 26.721 88.3518 26.721C89.5666 26.721 90.53 27.0585 91.2355 27.7324C91.9406 28.4105 92.2938 29.3256 92.2938 30.4889C92.2938 30.6881 92.2784 30.9188 92.2524 31.1666C92.2219 31.4109 92.1845 31.6544 92.1399 31.8965C91.8264 33.4591 91.1456 34.7047 90.094 35.6166C89.0419 36.5352 87.7786 36.9927 86.3058 36.9927C85.0862 36.9927 84.1258 36.6626 83.4203 35.9984M88.5723 34.0646C89.0489 33.5519 89.3898 32.7739 89.5983 31.7384C89.6296 31.5764 89.6574 31.4079 89.6746 31.2393C89.6918 31.0742 89.6989 30.9193 89.6989 30.7783C89.6989 30.1758 89.5445 29.7082 89.2346 29.3777C88.9263 29.0441 88.488 28.8786 87.9214 28.8786C87.1727 28.8786 86.5625 29.1395 86.0845 29.6631C85.6025 30.1863 85.2608 30.9779 85.0461 32.0309C85.0165 32.1929 84.9923 32.3544 84.9698 32.5129C84.9526 32.6749 84.9473 32.826 84.9508 32.9639C84.9508 33.5628 85.1052 34.0238 85.4151 34.3509C85.7238 34.6779 86.1599 34.8395 86.734 34.8395C87.4862 34.8395 88.0961 34.5808 88.5727 34.065" fill="white"/>
<path d="M109.836 43.6177L110.488 41.3397H113.784L113.642 42.1759C113.642 42.1759 115.326 41.3397 116.539 41.3397H120.614L119.967 43.6177H119.325L116.251 54.3618H116.892L116.283 56.4953H115.641L115.375 57.4208H112.183L112.449 56.4953H106.152L106.766 54.3618H107.397L110.474 43.6177H109.836M113.393 43.6177L112.554 46.5252C112.554 46.5252 113.989 45.978 115.226 45.8234C115.499 44.8085 115.857 43.6177 115.857 43.6177H113.393ZM112.165 47.8886L111.324 50.9345C111.324 50.9345 112.914 50.1565 114.006 50.0913C114.321 48.914 114.637 47.889 114.637 47.889H112.166L112.165 47.8886ZM112.782 54.3618L113.412 52.1521H110.952L110.318 54.3618H112.782ZM120.753 41.1987H123.852L123.984 42.334C123.963 42.6229 124.137 42.7608 124.504 42.7608H125.051L124.498 44.6842H122.22C121.351 44.7288 120.904 44.3987 120.862 43.6864L120.754 41.1987H120.753ZM119.845 45.3252H129.882L129.293 47.3904H126.097L125.549 49.3102H128.742L128.149 51.3715H124.594L123.79 52.5799H125.53L125.932 54.9988C125.98 55.2396 126.195 55.3565 126.563 55.3565H127.103L126.535 57.3486H124.622C123.63 57.3972 123.118 57.0666 123.076 56.3543L122.614 54.1446L121.031 56.4953C120.657 57.1595 120.081 57.469 119.305 57.4208H116.383L116.951 55.4279H117.863C118.237 55.4279 118.549 55.2633 118.829 54.9288L121.308 51.3706H118.113L118.705 49.3093H122.171L122.722 47.3895H119.253L119.845 45.3243M67.0074 26.9717H69.4458L69.1667 28.3824L69.5168 27.9796C70.3074 27.1398 71.2673 26.7235 72.4006 26.7235C73.4266 26.7235 74.1661 27.0194 74.6308 27.6149C75.0881 28.2103 75.2133 29.033 74.9964 30.089L73.6528 36.7443H71.147L72.3596 30.712C72.4843 30.089 72.4499 29.6245 72.2573 29.325C72.0672 29.0255 71.703 28.878 71.1778 28.878C70.5332 28.878 69.9908 29.0772 69.5486 29.4734C69.105 29.8727 68.8122 30.427 68.668 31.1319L67.5502 36.7447H65.0391L67.0065 26.9717M94.9666 26.9717H97.4072L97.1298 28.3824L97.4755 27.9796C98.2666 27.1398 99.23 26.7235 100.36 26.7235C101.386 26.7235 102.127 27.0194 102.588 27.6149C103.042 28.2103 103.173 29.033 102.952 30.089L101.614 36.7443H99.1048L100.318 30.712C100.443 30.089 100.408 29.6245 100.217 29.325C100.02 29.0255 99.6626 28.878 99.1396 28.878C98.4945 28.878 97.9544 29.0772 97.5073 29.4734C97.0637 29.8727 96.7691 30.427 96.6307 31.1319L95.5076 36.7447H93L94.9666 26.9717ZM107.028 20.9149H114.112C115.474 20.9149 116.528 21.2214 117.252 21.8229C117.973 22.4328 118.333 23.3063 118.333 24.4455V24.4801C118.333 24.6968 118.319 24.9411 118.298 25.206C118.262 25.4748 118.216 25.7423 118.16 26.0081C117.847 27.515 117.123 28.7269 116.004 29.6455C114.881 30.561 113.55 31.022 112.019 31.022H108.219L107.045 36.7447H103.756L107.028 20.9149ZM108.798 28.2694H111.949C112.77 28.2694 113.422 28.0798 113.897 27.705C114.369 27.3263 114.681 26.7484 114.853 25.9638C114.881 25.8189 114.898 25.6884 114.92 25.568C114.93 25.4546 114.944 25.3408 114.944 25.2309C114.944 24.6696 114.743 24.2638 114.341 24.009C113.939 23.7502 113.308 23.6272 112.435 23.6272H109.759L108.799 28.2698M133.056 38.6348C132.016 40.83 131.025 42.1098 130.443 42.7052C129.86 43.2941 128.706 44.6636 125.926 44.5603L126.166 42.8847C128.505 42.1689 129.77 38.9439 130.491 37.5162L129.632 26.9997L131.441 26.9756H132.958L133.122 33.5727L135.967 26.9756H138.848L133.056 38.6348ZM125.002 27.7703L123.857 28.5514C122.662 27.6223 121.57 27.0474 119.463 28.0181C116.594 29.3394 114.195 39.4746 122.098 36.1362L122.548 36.6664L125.657 36.7456L127.698 27.5365L125.002 27.7703ZM123.233 32.8048C122.734 34.2675 121.619 35.2343 120.745 34.9589C119.872 34.6905 119.56 33.2794 120.066 31.8136C120.565 30.3473 121.688 29.3841 122.554 29.6595C123.428 29.9279 123.743 31.339 123.233 32.8048Z" fill="white"/>
</svg>
