<svg width="187" height="75" viewBox="0 0 187 75" fill="none" xmlns="http://www.w3.org/2000/svg">
<g clip-path="url(#clip0_202_2581)">
<mask id="mask0_202_2581" style="mask-type:luminance" maskUnits="userSpaceOnUse" x="3" y="28" width="180" height="35">
<path d="M182.93 28H3.02734V62.8649H182.93V28Z" fill="white"/>
</mask>
<g mask="url(#mask0_202_2581)">
<path fill-rule="evenodd" clip-rule="evenodd" d="M74.0157 55.2714C67.3678 60.2267 57.7284 62.8629 49.4278 62.8629C37.7966 62.8629 27.321 58.5198 19.3927 51.2886C18.771 50.7196 19.3245 49.9459 20.0729 50.3849C28.6249 55.4131 39.2018 58.4411 50.1256 58.4411C57.4945 58.4411 65.5943 56.8956 73.049 53.7023C74.1735 53.2219 75.1168 54.4504 74.0157 55.2714Z" fill="#F79C34"/>
<path fill-rule="evenodd" clip-rule="evenodd" d="M76.7832 52.08C75.9315 50.9794 71.1625 51.5583 69.0186 51.8181C68.3696 51.8969 68.2683 51.324 68.853 50.9086C72.6592 48.2074 78.8959 48.9871 79.6189 49.8927C80.3478 50.8042 79.426 57.12 75.8614 60.1342C75.3118 60.5969 74.7894 60.3508 75.0331 59.7385C75.836 57.7126 77.6329 53.1805 76.7813 52.08H76.7832Z" fill="#F79C34"/>
<path fill-rule="evenodd" clip-rule="evenodd" d="M69.1704 31.8323V29.21C69.1724 28.8103 69.4706 28.5445 69.8292 28.5465H81.4702C81.8424 28.5465 82.1426 28.8182 82.1426 29.208V31.4583C82.1387 31.8363 81.823 32.3285 81.2656 33.1101L75.2355 41.8081C77.4729 41.7549 79.8409 42.0936 81.8756 43.2492C82.3336 43.5091 82.4583 43.895 82.4934 44.273V47.0726C82.4934 47.4584 82.0763 47.9053 81.6359 47.673C78.0537 45.7771 73.2983 45.5704 69.3361 47.6967C68.9307 47.9152 68.5078 47.4742 68.5078 47.0883V44.4265C68.5078 44.0013 68.5156 43.2728 68.9405 42.6231L75.9255 32.4978H69.8428C69.4706 32.4978 69.1724 32.23 69.1704 31.8363V31.8323ZM26.707 48.2204H23.1657C22.8286 48.1987 22.5596 47.9428 22.5323 47.6159L22.5362 29.2533C22.5362 28.8871 22.8422 28.5937 23.2203 28.5937H26.5179C26.8629 28.6095 27.1396 28.8733 27.1611 29.21V31.6059H27.2293C28.0888 29.2867 29.7083 28.2059 31.8892 28.2059C34.07 28.2059 35.4928 29.2887 36.4848 31.6059C37.3443 29.2867 39.2952 28.2059 41.3766 28.2059C42.8656 28.2059 44.4832 28.8241 45.4752 30.216C46.5998 31.7615 46.3698 34.0019 46.3698 35.9727L46.3659 47.5608C46.3659 47.927 46.0619 48.2204 45.6838 48.2204H42.1465C41.7898 48.1967 41.5111 47.9132 41.5111 47.5608V37.8272C41.5111 37.0555 41.5754 35.1241 41.4098 34.3898C41.1466 33.1514 40.3534 32.8049 39.3283 32.8049C38.4688 32.8049 37.5762 33.3837 37.2117 34.311C36.8473 35.2403 36.8824 36.7838 36.8824 37.8272V47.5608C36.8824 47.927 36.5764 48.2204 36.2002 48.2204H32.6629C32.3063 48.1967 32.0276 47.9132 32.0276 47.5608L32.0237 37.8272C32.0237 35.7797 32.355 32.7675 29.8428 32.7675C27.3306 32.7675 27.3969 35.7029 27.3969 37.8272V47.5608C27.3949 47.927 27.0889 48.2204 26.7128 48.2204H26.707ZM92.1933 31.9544C89.5817 31.9544 89.416 35.5474 89.416 37.7879C89.416 40.0283 89.3829 44.8203 92.1601 44.8203C94.9374 44.8203 95.0368 40.9556 95.0368 38.599C95.0368 37.0535 94.9686 35.1989 94.5067 33.7302C94.111 32.4545 93.3158 31.9524 92.1913 31.9524L92.1933 31.9544ZM92.1621 28.2059C97.4184 28.2059 100.26 32.7675 100.26 38.5616C100.26 44.3557 97.1202 48.6062 92.1621 48.6062C87.204 48.6062 84.1948 44.0466 84.1948 38.3667C84.1948 32.6868 87.0364 28.2059 92.1621 28.2059ZM107.077 48.2204H103.548C103.195 48.1967 102.912 47.9132 102.912 47.5608L102.907 29.1922C102.938 28.8556 103.23 28.5937 103.587 28.5937H106.871C107.181 28.6095 107.436 28.8221 107.5 29.1056V31.915H107.566C108.559 29.4029 109.946 28.2059 112.392 28.2059C113.979 28.2059 115.534 28.7847 116.526 30.3696C117.452 31.8383 117.452 34.3091 117.452 36.0868V47.6415C117.413 47.9664 117.124 48.2184 116.773 48.2184H113.224C112.897 48.1987 112.632 47.9546 112.593 47.6415V37.6717C112.593 35.6616 112.825 32.7242 110.379 32.7242C109.519 32.7242 108.726 33.303 108.329 34.1929C107.832 35.3131 107.765 36.4334 107.765 37.6717V47.5588C107.759 47.925 107.453 48.2184 107.075 48.2184L107.077 48.2204ZM63.4581 48.1751C63.2242 48.3877 62.8871 48.4015 62.622 48.2578C61.4468 47.2694 61.2344 46.8147 60.5912 45.8736C58.6481 47.8738 57.2702 48.4743 54.7522 48.4743C51.7703 48.4743 49.4511 46.6158 49.4511 42.8988C49.4511 39.9948 51.0102 38.0202 53.2281 37.0515C55.1498 36.1991 57.8335 36.0455 59.8876 35.8112V35.3466C59.8876 34.4921 59.9539 33.4881 59.4569 32.7518C59.0262 32.0922 58.1979 31.8225 57.469 31.8225C56.1184 31.8225 54.9179 32.5214 54.6216 33.9704C54.5592 34.2933 54.3273 34.6122 54.0077 34.63L50.5737 34.2539C50.2833 34.187 49.9617 33.9527 50.0455 33.5058C50.827 29.3576 54.4949 28.0641 57.8276 28.0307H58.0907C59.796 28.0523 61.975 28.5248 63.3022 29.8104C65.025 31.4366 64.8594 33.6062 64.8594 35.9687V41.5423C64.8594 43.2197 65.5493 43.954 66.1964 44.8577C66.4244 45.1845 66.4731 45.5704 66.1847 45.8086C65.4616 46.4209 64.1753 47.549 63.4698 48.1849L63.46 48.177L63.4581 48.1751ZM59.8896 39.4534C59.8896 40.8473 59.9227 42.0089 59.227 43.2492C58.6637 44.2553 57.7691 44.8754 56.7752 44.8754C55.4168 44.8754 54.6236 43.83 54.6236 42.2806C54.6236 39.2329 57.3287 38.6797 59.8915 38.6797V39.4554L59.8896 39.4534ZM17.0344 48.1751C16.8005 48.3877 16.4614 48.4015 16.1983 48.2578C15.0211 47.2694 14.8106 46.8147 14.1675 45.8736C12.2224 47.8738 10.8465 48.4743 8.32846 48.4743C5.34658 48.4743 3.02734 46.6158 3.02734 42.8988C3.02734 39.9948 4.58455 38.0202 6.80439 37.0515C8.72604 36.1991 11.4097 36.0455 13.462 35.8112V35.3466C13.462 34.4921 13.5302 33.4881 13.0312 32.7518C12.6005 32.0922 11.7722 31.8225 11.0433 31.8225C9.69272 31.8225 8.49022 32.5214 8.19593 33.9704C8.13551 34.2933 7.90164 34.6122 7.58007 34.63L4.14798 34.2539C3.85759 34.187 3.53602 33.9527 3.61982 33.5058C4.3994 29.3576 8.0673 28.0641 11.4019 28.0307H11.665C13.3704 28.0523 15.5493 28.5248 16.8765 29.8104C18.5994 31.4366 18.4337 33.6062 18.4337 35.9687V41.5423C18.4337 43.2197 19.1236 43.954 19.7707 44.8577C19.9968 45.1845 20.0474 45.5704 19.759 45.8086C19.0359 46.4209 17.7496 47.549 17.0422 48.1849L17.0344 48.177V48.1751ZM13.4639 39.4534C13.4639 40.8473 13.497 42.0089 12.8013 43.2492C12.238 44.2553 11.3435 44.8754 10.3495 44.8754C8.9911 44.8754 8.19788 43.83 8.19788 42.2806C8.19788 39.2329 10.903 38.6797 13.4659 38.6797V39.4554L13.4639 39.4534ZM165.867 54.8078V53.4592C165.867 53.0753 166.054 52.8115 166.45 52.8351C167.19 52.9414 168.237 53.0478 168.98 52.8922C169.95 52.6875 170.646 51.9925 171.057 51.0416C171.638 49.7009 172.022 48.62 172.263 47.9113L164.896 29.4738C164.772 29.1607 164.735 28.5799 165.354 28.5799H167.929C168.42 28.5799 168.621 28.8949 168.73 29.204L174.072 44.1804L179.171 29.204C179.274 28.8969 179.484 28.5799 179.972 28.5799H182.4C183.014 28.5799 182.981 29.1588 182.858 29.4738L175.549 48.4861C174.604 51.016 173.343 55.048 170.506 55.7469C169.083 56.123 167.288 55.9871 166.233 55.5402C165.968 55.4044 165.865 55.0441 165.865 54.8078H165.867ZM162.431 47.0982C162.431 47.4407 162.152 47.7223 161.811 47.7223H159.995C159.603 47.7223 159.334 47.4368 159.286 47.0982L159.102 45.85C158.268 46.5626 157.243 47.1907 156.132 47.6278C153.996 48.4664 151.533 48.6043 149.445 47.3088C147.937 46.3736 147.134 44.5427 147.134 42.6566C147.134 41.1958 147.58 39.7488 148.566 38.6974C149.884 37.2602 151.794 36.5554 154.101 36.5554C155.495 36.5554 157.489 36.7208 158.939 37.1992V34.6851C158.939 32.1296 157.874 31.0232 155.066 31.0232C152.92 31.0232 151.277 31.35 148.993 32.0686C148.627 32.0804 148.412 31.8008 148.412 31.4563V30.0231C148.412 29.6785 148.703 29.3458 149.018 29.2454C150.65 28.5268 152.961 28.0799 155.419 27.9972C158.623 27.9972 162.429 28.7276 162.429 33.7046V47.0962L162.431 47.0982ZM158.941 43.4284V39.6365C157.722 39.2999 155.705 39.1601 154.924 39.1601C153.69 39.1601 152.339 39.4554 151.634 40.2213C151.108 40.7843 150.868 41.5915 150.868 42.3711C150.868 43.3792 151.213 44.3931 152.02 44.8931C152.957 45.5369 154.411 45.4582 155.779 45.0664C157.093 44.6904 158.327 44.0229 158.939 43.4303L158.941 43.4284ZM135.653 31.0822C139.683 31.0822 140.78 34.2835 140.78 37.9493C140.804 40.4201 140.354 42.6232 139.087 43.8851C138.14 44.8301 137.079 45.0861 135.485 45.0861C134.066 45.0861 132.201 44.3379 130.806 43.2984V32.8167C132.258 31.6906 134.109 31.0822 135.653 31.0822ZM130.188 55.4654H127.756C127.414 55.4654 127.138 55.1839 127.138 54.8413V29.2355C127.138 28.893 127.416 28.6114 127.756 28.6114H129.617C130.009 28.6114 130.276 28.8969 130.326 29.2355L130.521 30.5763C132.265 29.0131 134.511 28.009 136.649 28.009C142.64 28.009 144.61 32.9959 144.61 38.1816C144.61 43.7296 141.597 48.1889 136.499 48.1889C134.353 48.1889 132.345 47.3895 130.802 45.9996V54.8413C130.802 55.1839 130.523 55.4654 130.184 55.4654H130.188Z" fill="#333E47"/>
</g>
</g>
<defs>
<clipPath id="clip0_202_2581">
<rect width="179.903" height="34.8649" fill="white" transform="translate(3.02734 28)"/>
</clipPath>
</defs>
</svg>
