<svg width="187" height="75" viewBox="0 0 187 75" fill="none" xmlns="http://www.w3.org/2000/svg">
<path d="M172.719 48.417H167.658C166.61 48.417 165.737 47.7236 165.737 46.8569C165.737 45.8168 166.61 45.2967 167.658 45.2967H176.906L179.001 40.62H167.658C162.947 40.62 160.327 43.3899 160.327 47.0302C160.327 50.6706 162.947 53.0938 166.959 53.0938H172.02C173.068 53.0938 173.941 53.7872 173.941 54.654C173.941 55.5207 173.242 56.2141 172.02 56.2141H160.851V60.8909H172.02C176.731 60.8909 179.351 58.1209 179.351 54.3073C179.351 50.4936 176.906 48.417 172.719 48.417ZM152.302 48.417H147.241C146.194 48.417 145.32 47.7236 145.32 46.8569C145.32 45.8168 146.194 45.2967 147.241 45.2967H156.489L158.585 40.62H147.241C142.53 40.62 139.914 43.3899 139.914 47.0302C139.914 50.6706 142.53 53.0938 146.546 53.0938H151.607C152.655 53.0938 153.528 53.7872 153.528 54.654C153.528 55.5207 152.829 56.2141 151.607 56.2141H140.438V60.8909H151.607C156.318 60.8909 158.934 58.1209 158.934 54.3073C159.109 50.4972 156.667 48.417 152.302 48.417ZM120.021 61.0606H137.473V56.3838H125.606V53.0938H137.298V48.417H125.606V45.127H137.473V40.4502H120.021V61.0642V61.0606ZM109.202 49.2838H103.443V45.127H109.202C110.773 45.127 111.647 46.1671 111.647 47.2072C111.647 48.4206 110.773 49.2874 109.202 49.2874M117.227 47.0338C117.227 43.0504 114.433 40.4502 109.897 40.4502H97.8548V61.0642H103.439V53.9642H105.535L111.818 61.0642H118.45L111.643 53.6175C115.132 52.7507 117.227 50.3275 117.227 47.0338ZM87.3881 49.6341H81.4545V45.1306H87.3881C88.9598 45.1306 89.8329 46.1707 89.8329 47.3842C89.8329 48.5976 89.1344 49.6377 87.3881 49.6377M88.0866 40.4574H76.0447V61.0715H81.6291V54.3145H88.0866C92.7979 54.3145 95.5919 51.3712 95.5919 47.3842C95.4173 43.2274 92.6269 40.4538 88.0866 40.4538M75.0006 40.4538H67.8482L62.613 46.6908L57.2032 40.4538H49.8726L59.1205 50.6742L49.6979 61.0679H56.8503L62.4348 54.4842L68.0192 61.0679H75.3462L65.9236 50.5008L74.9969 40.4538H75.0006ZM31.5514 61.0679H48.9994V56.3911H36.9575V53.101H48.6502V48.4242H36.9575V45.1342H48.9994V40.4574H31.5514V61.0715V61.0679ZM170.623 26.5896L162.074 14.1193H155.092V34.56H160.677V21.5661L169.401 34.5564H176.033V14.1193H170.623V26.5932V26.5896ZM138.514 25.8962L141.479 18.9658L144.444 25.8962H138.51H138.514ZM137.815 14.1157L128.742 34.7297H134.85L136.596 30.573H146.194L147.94 34.7297H154.223L144.975 14.1193H137.819L137.815 14.1157ZM119.669 24.5094V24.1627C119.669 21.046 121.415 18.9658 124.904 18.9658H131.012V13.946H124.38C117.573 13.946 114.084 18.2761 114.084 23.9929V24.3396C114.084 30.7499 118.097 34.3866 124.205 34.3866H126.126L128.393 29.7098H125.078C121.764 29.8832 119.669 27.9763 119.669 24.513M105.709 34.56H111.294V14.1193H105.709V34.56ZM94.8898 22.7795H89.1307V18.6228H94.8898C96.4614 18.6228 97.3345 19.6628 97.3345 20.7029C97.3345 21.9164 96.4614 22.7831 94.8898 22.7831M102.915 20.7029C102.915 16.7195 100.121 14.1193 95.5883 14.1193H83.5463V34.7333H89.1307V27.4599H91.2263L97.5092 34.5636H104.316L97.3382 27.1168C100.827 26.4234 102.923 23.8268 102.923 20.7065M62.4384 34.5636H79.8865V29.8868H68.0192V26.5968H79.5372V21.92H68.0192V18.63H79.8865V14.1193H62.4384V34.56V34.5636ZM44.8157 26.9399L40.1008 14.1193H31.5514V34.56H36.9611V19.8362L42.3709 34.56H47.2568L52.6666 19.8362V34.56H58.251V14.1193H49.527L44.8157 26.9363V26.9399ZM14.8018 25.8998L17.7668 18.9694L20.7318 25.8998H14.7982H14.8018ZM14.0997 14.1193L5.02637 34.56H11.1346L12.8809 30.4032H22.4781L24.2243 34.56H30.5072L21.2557 14.1193H14.0997Z" fill="#006FCF"/>
</svg>
