<svg width="187" height="75" viewBox="0 0 187 75" fill="none" xmlns="http://www.w3.org/2000/svg">
<path d="M13.1488 24.1373H5.02637V52.5852H13.1488C17.4293 52.5852 20.5801 51.5501 23.2887 49.2871C26.5377 46.5819 28.4569 42.5435 28.4569 38.3612C28.4078 29.9932 22.1554 24.1373 13.1488 24.1373ZM19.6468 45.4978C17.924 47.0731 15.661 47.7608 12.0682 47.7608H10.591V28.9617H12.0682C15.661 28.9617 17.8258 29.6002 19.6468 31.2738C21.566 32.9966 22.6993 35.6035 22.6993 38.3612C22.6993 41.0699 21.566 43.775 19.6468 45.4978Z" fill="#231F20"/>
<path d="M36.5231 24.1373H30.9619V52.5852H36.5231V24.1373Z" fill="#231F20"/>
<path d="M50.0596 35.0667C46.7124 33.8351 45.7791 33.0001 45.7791 31.4738C45.7791 29.702 47.5018 28.3231 49.9123 28.3231C51.5859 28.3231 52.9156 29.0108 54.3893 30.6353L57.2944 26.846C54.9331 24.7794 52.0771 23.6952 48.9263 23.6952C43.9055 23.6952 40.0671 27.1898 40.0671 31.8177C40.0671 35.7544 41.8389 37.7227 47.0562 39.5928C49.2211 40.3787 50.3543 40.8734 50.8947 41.2173C52.028 41.9541 52.5683 42.9891 52.5683 44.1715C52.5683 46.4837 50.7473 48.1573 48.2878 48.1573C45.6317 48.1573 43.5125 46.8276 42.2354 44.368L38.6426 47.8135C41.2004 51.5537 44.2529 53.2273 48.4843 53.2273C54.2419 53.2273 58.2768 49.3888 58.2768 43.8768C58.2768 39.3998 56.4067 37.3788 50.0561 35.0667H50.0596Z" fill="#231F20"/>
<path d="M60.0029 38.3613C60.0029 46.7293 66.55 53.1746 75.0128 53.1746C77.3741 53.1746 79.4407 52.6834 81.9528 51.501V44.9539C79.7389 47.1679 77.7706 48.0556 75.2584 48.0556C69.6972 48.0556 65.7115 44.0207 65.7115 38.263C65.7115 32.5054 69.7955 28.5196 75.0128 28.5196C77.6688 28.5196 79.6407 29.4564 81.9528 31.7194V25.1724C79.5424 23.9408 77.525 23.4496 75.111 23.4496C66.743 23.4988 60.0029 30.095 60.0029 38.3613Z" fill="#231F20"/>
<path d="M125.901 43.2347L118.323 24.1373H112.271L124.375 53.3255H127.329L139.634 24.1373H133.631L125.901 43.2347Z" fill="#231F20"/>
<path d="M142.144 52.5852H157.845V47.7643H147.656V40.084H157.452V35.2631H147.656V28.9617H157.845V24.1373H142.144V52.5852Z" fill="#231F20"/>
<path d="M179.795 32.5545C179.795 27.2389 176.153 24.1373 169.753 24.1373H161.532V52.5852H167.093V41.1681H167.83L175.507 52.5852H182.349L173.391 40.6243C177.475 39.7401 179.791 36.8841 179.791 32.5545H179.795ZM168.672 37.2315H167.048V28.6178H168.771C172.216 28.6178 174.086 30.0458 174.086 32.8492C174.086 35.6526 172.216 37.228 168.672 37.228V37.2315Z" fill="#231F20"/>
<path d="M98.8815 53.5676C107.226 53.5676 113.99 46.8035 113.99 38.4595C113.99 30.1155 107.226 23.3514 98.8815 23.3514C90.5376 23.3514 83.7734 30.1155 83.7734 38.4595C83.7734 46.8035 90.5376 53.5676 98.8815 53.5676Z" fill="url(#paint0_linear_202_2513)"/>
<path opacity="0.65" d="M98.8815 53.5676C107.226 53.5676 113.99 46.8035 113.99 38.4595C113.99 30.1155 107.226 23.3514 98.8815 23.3514C90.5376 23.3514 83.7734 30.1155 83.7734 38.4595C83.7734 46.8035 90.5376 53.5676 98.8815 53.5676Z" fill="url(#paint1_linear_202_2513)"/>
<defs>
<linearGradient id="paint0_linear_202_2513" x1="106.625" y1="50.5853" x2="96.1553" y2="34.1895" gradientUnits="userSpaceOnUse">
<stop stop-color="#F89F20"/>
<stop offset="0.25" stop-color="#F79A20"/>
<stop offset="0.53" stop-color="#F68D20"/>
<stop offset="0.62" stop-color="#F58720"/>
<stop offset="0.72" stop-color="#F48120"/>
<stop offset="1" stop-color="#F37521"/>
</linearGradient>
<linearGradient id="paint1_linear_202_2513" x1="104.973" y1="50.3607" x2="89.6679" y2="20.4498" gradientUnits="userSpaceOnUse">
<stop stop-color="#F58720"/>
<stop offset="0.36" stop-color="#E16F27"/>
<stop offset="0.7" stop-color="#D4602C"/>
<stop offset="0.98" stop-color="#D05B2E"/>
</linearGradient>
</defs>
</svg>
