<svg width="186" height="75" viewBox="0 0 186 75" fill="none" xmlns="http://www.w3.org/2000/svg">
<path fill-rule="evenodd" clip-rule="evenodd" d="M89.0578 52.3436V37.3907H96.7753C99.9377 37.3907 102.607 36.331 104.783 34.2411L105.305 33.7113C109.28 29.3844 109.019 22.6438 104.783 18.6406C102.665 16.5213 99.7636 15.3734 96.7753 15.4322H84.3867V52.3436H89.0578ZM89.0583 32.8575V19.965H96.8931C98.5761 19.965 100.172 20.6126 101.362 21.79C103.886 24.2625 103.944 28.3834 101.507 30.9442C100.317 32.2099 98.6341 32.9163 96.8931 32.8575H89.0583ZM127.094 29.0604C125.092 27.206 122.365 26.2641 118.913 26.2641C114.474 26.2641 111.137 27.9125 108.932 31.1797L113.052 33.7994C114.561 31.5624 116.621 30.4439 119.232 30.4439C120.885 30.4439 122.481 31.062 123.729 32.1805C124.947 33.2402 125.644 34.7708 125.644 36.3897V37.4788C123.845 36.478 121.582 35.9482 118.797 35.9482C115.547 35.9482 112.936 36.7135 110.992 38.2735C109.048 39.8336 108.062 41.894 108.062 44.5137C108.004 46.898 109.019 49.1645 110.818 50.6951C112.646 52.3434 114.967 53.1676 117.694 53.1676C120.914 53.1676 123.468 51.7253 125.411 48.8407H125.615V52.3434H130.083V36.7724C130.083 33.5051 129.096 30.9148 127.094 29.0604ZM114.416 47.6926C113.459 46.9861 112.878 45.8382 112.878 44.6019C112.878 43.2185 113.517 42.0705 114.764 41.158C116.041 40.2455 117.637 39.7746 119.523 39.7746C122.135 39.7452 124.166 40.3339 125.617 41.5112C125.617 43.5128 124.833 45.2495 123.296 46.7212C121.903 48.1341 120.017 48.9288 118.043 48.9288C116.738 48.9583 115.461 48.5168 114.416 47.6926ZM140.121 63.4402L155.73 27.0882H150.653L143.428 45.22H143.341L135.943 27.0882H130.866L141.107 50.7244L135.305 63.4402H140.121Z" fill="#3C4043"/>
<path d="M72.9318 34.153C72.9318 32.7107 72.8158 31.2683 72.5837 29.8555H52.8838V38.0089H64.1699C63.7057 40.6286 62.197 42.9834 59.992 44.4552V49.7535H66.723C70.6688 46.0741 72.9318 40.6286 72.9318 34.153Z" fill="#4285F4"/>
<path d="M52.8849 54.875C58.5134 54.875 63.2716 52.9912 66.7241 49.7534L59.9931 44.4551C58.1073 45.7502 55.6992 46.4861 52.8849 46.4861C47.4304 46.4861 42.8174 42.7478 41.1636 37.7439H34.2295V43.2188C37.7691 50.3715 44.9933 54.875 52.8849 54.875Z" fill="#34A853"/>
<path d="M41.1642 37.7438C40.2936 35.1241 40.2936 32.2689 41.1642 29.6198V24.1743H34.2289C31.2401 30.1496 31.2401 37.214 34.2289 43.1893L41.1642 37.7438Z" fill="#FBBC04"/>
<path d="M52.8849 20.8777C55.8732 20.8189 58.7455 21.9668 60.8925 24.0567L66.8692 17.9931C63.0685 14.4021 58.0782 12.4299 52.8849 12.4888C44.9933 12.4888 37.7691 17.0218 34.2295 24.1745L41.1636 29.6493C42.8174 24.616 47.4304 20.8777 52.8849 20.8777Z" fill="#EA4335"/>
</svg>
