<svg width="40" height="40" viewBox="0 0 40 40" fill="none" xmlns="http://www.w3.org/2000/svg">
<rect x="0.5" y="0.5" width="39" height="39" rx="19.5" stroke="black"/>
<path fill-rule="evenodd" clip-rule="evenodd" d="M15.3985 12.5H24.6006C26.1994 12.5 27.4999 13.8005 27.5 15.3985V24.6015C27.5 26.1995 26.2003 27.5 24.6015 27.5H15.3985C13.8005 27.5 12.5 26.2003 12.5 24.6015V15.3985C12.5 13.8005 13.7997 12.5 15.3985 12.5ZM25.8425 14.1766L25.5142 14.1775L23.3264 14.185L23.3347 16.6744L25.8425 16.6661V14.1766ZM20.0002 17.4908C22.0805 17.4908 22.5095 19.4437 22.5095 20.0011C22.5095 21.3832 21.3832 22.5096 20.0002 22.5096C18.6164 22.5096 17.4908 21.3832 17.4908 20.0011C17.4899 19.4437 17.9199 17.4908 20.0002 17.4908ZM24.4177 25.8567C25.2117 25.8567 25.8557 25.2119 25.8557 24.4195H25.8539V18.3301H23.796C23.9885 18.8058 24.0977 19.4556 24.0977 20.0005C24.0977 22.2617 22.259 24.1021 19.997 24.1021C17.7349 24.1021 15.8954 22.2617 15.8954 20.0005C15.8954 19.4556 16.0045 18.8058 16.1978 18.3301H14.115V24.4195C14.115 25.2127 14.7598 25.8567 15.553 25.8567H24.4177Z" fill="black"/>
</svg>
