<svg width="186" height="75" viewBox="0 0 186 75" fill="none" xmlns="http://www.w3.org/2000/svg">
<path d="M167.52 45.2328C165.021 45.2423 163.003 47.2757 163.012 49.7747C163.012 49.7779 163.012 49.7804 163.012 49.7829C162.998 52.2819 165.012 54.3191 167.511 54.3331C167.514 54.3331 167.517 54.3331 167.519 54.3331C170.005 54.3331 172.027 52.2946 172.027 49.7829C172.041 47.2839 170.027 45.2468 167.528 45.2328C167.526 45.2328 167.522 45.2328 167.52 45.2328ZM152.685 41.7187C152.685 38.2764 149.771 35.4896 146.176 35.4896C142.581 35.4896 139.668 38.2808 139.668 41.7187C139.668 45.1566 142.586 47.9439 146.18 47.9439C149.774 47.9439 152.684 45.1572 152.684 41.7187H152.685ZM152.71 29.6112H159.891V53.8217H152.71V52.2737C150.616 53.7188 148.133 54.4919 145.589 54.4893C138.598 54.4893 132.932 48.7716 132.932 41.7181C132.932 34.6645 138.598 28.9468 145.589 28.9468C148.232 28.9468 150.68 29.763 152.71 31.1625V29.6106V29.6112ZM95.2308 32.7658V29.615H87.8767V53.8211H95.2479V42.5172C95.2479 38.7026 99.3413 36.6559 102.183 36.6559H102.268V29.615C99.3496 29.615 96.6727 30.8753 95.2308 32.7658ZM76.9114 41.7187C76.9114 38.2764 73.9976 35.4896 70.4028 35.4896C66.8081 35.4896 63.8943 38.2808 63.8943 41.7187C63.8943 45.1566 66.8125 47.9439 70.4066 47.9439C74.0008 47.9439 76.9108 45.1572 76.9108 41.7187H76.9114ZM76.9368 29.6112H84.1219V53.8217H76.9368V52.2737C74.9066 53.6693 72.4584 54.4893 69.8152 54.4893C62.8245 54.4893 57.1583 48.7716 57.1583 41.7181C57.1583 34.6645 62.8252 28.9468 69.8152 28.9468C72.4584 28.9468 74.9066 29.763 76.9368 31.1625V29.6106V29.6112ZM120.169 28.9639C117.302 28.9639 114.587 29.8602 112.769 32.3389V29.6157H105.618V53.8217H112.858V41.1013C112.858 37.422 115.302 35.6161 118.25 35.6161C121.404 35.6161 123.223 37.5192 123.223 41.0504V53.8217H130.395V38.4282C130.395 32.795 125.955 28.9639 120.17 28.9639H120.169ZM46.6961 53.8217H54.2153V18.8276H46.6961V53.8217ZM13.6686 53.83H21.6318V18.8193H13.6724L13.668 53.8306L13.6686 53.83ZM41.5196 18.8193C41.5196 26.3976 38.5931 33.4512 33.3747 38.6912L44.3781 53.8306H34.546L22.591 37.3801L25.6782 35.0456C30.7741 31.2126 33.7571 25.1958 33.7215 18.8193H41.5196Z" fill="#0A0B09"/>
</svg>
