<svg width="187" height="75" viewBox="0 0 187 75" fill="none" xmlns="http://www.w3.org/2000/svg">
<path d="M181.587 30.083C181.019 25.6572 179.43 21.6265 176.65 18.6759C173.699 15.8959 169.668 14.307 165.243 13.7385C160.987 13.17 158.091 13.3405 158.091 13.3405C158.091 13.3405 155.197 13.2268 150.939 13.7385C146.513 14.307 142.483 15.8959 139.532 18.6759C136.752 21.6265 135.163 25.6572 134.594 30.083C134.026 34.3383 134.14 37.2348 134.14 37.2348C134.14 37.2348 134.026 40.1285 134.538 44.3867C135.106 48.8125 136.695 52.8432 139.475 55.7937C142.426 58.5737 146.456 60.1627 150.882 60.7312C155.137 61.2997 158.034 61.1292 158.034 61.1292C158.034 61.1292 160.928 61.2429 165.186 60.7312C169.612 60.1627 173.642 58.5737 176.593 55.7937C179.373 52.8432 180.962 48.8125 181.53 44.3867C182.099 40.1314 181.928 37.2348 181.928 37.2348C181.928 37.2348 182.156 34.3411 181.587 30.083Z" fill="#1E4BC6"/>
<path d="M142.936 30.2535H147.249C147.931 30.2535 148.496 30.3672 149.065 30.5946C149.633 30.822 150.085 31.1631 150.483 31.5582C150.881 31.9533 151.222 32.4081 151.447 32.9766C151.674 33.5451 151.788 34.1108 151.788 34.7361C151.788 35.3615 151.674 35.9272 151.447 36.4957C151.22 37.0642 150.878 37.519 150.483 37.9141C150.088 38.3092 149.577 38.6532 149.065 38.8777C148.553 39.1051 147.931 39.2188 147.249 39.2188H145.318V42.7947H142.99V30.2506H142.934L142.936 30.2535ZM145.264 32.411V37.0073H147.081C147.422 37.0073 147.763 36.9505 148.044 36.8368C148.326 36.7231 148.556 36.5525 148.784 36.3251C149.011 36.0977 149.125 35.8703 149.238 35.5861C149.352 35.3018 149.409 35.0176 149.409 34.6793C149.409 34.341 149.352 34.0539 149.238 33.7725C149.125 33.4883 148.954 33.2609 148.784 33.0335C148.556 32.8061 148.329 32.6355 148.044 32.5218C147.76 32.4081 147.419 32.3513 147.081 32.3513H145.264V32.4081V32.411ZM157.183 42.7976C156.558 42.7976 155.992 42.6839 155.367 42.4565C154.798 42.2291 154.233 41.888 153.778 41.4928C153.323 41.038 152.928 40.5264 152.644 39.9039C152.359 39.2814 152.189 38.5423 152.189 37.7464C152.189 36.9505 152.303 36.2143 152.587 35.5889C152.871 34.9635 153.269 34.4547 153.721 33.9999C154.173 33.5451 154.741 33.2609 155.31 33.0363C155.935 32.8089 156.501 32.6952 157.183 32.6952C157.865 32.6952 158.488 32.8089 159 33.0363C159.568 33.2637 160.02 33.6048 160.418 33.9999V32.6952H162.746V42.7976H160.418V41.3791C160.077 41.8339 159.568 42.1751 159 42.4565C158.431 42.6839 157.865 42.7976 157.183 42.7976ZM157.581 40.6969C158.036 40.6969 158.431 40.6401 158.772 40.4695C159.113 40.299 159.454 40.1284 159.736 39.8442C160.017 39.5599 160.191 39.2757 160.361 38.9374C160.532 38.5963 160.589 38.1983 160.589 37.8032C160.589 37.4081 160.532 37.0073 160.361 36.6691C160.191 36.328 160.02 35.9869 159.736 35.7623C159.452 35.478 159.167 35.3075 158.772 35.1369C158.374 34.9095 157.976 34.8527 157.581 34.8527C157.186 34.8527 156.785 34.9095 156.39 35.0801C155.992 35.2506 155.708 35.4212 155.427 35.7054C155.145 35.9897 154.915 36.274 154.801 36.6122C154.631 36.9533 154.574 37.3513 154.574 37.7464C154.574 38.1415 154.631 38.5395 154.801 38.8806C154.972 39.2217 155.199 39.5628 155.427 39.847C155.711 40.1313 156.052 40.3018 156.39 40.4724C156.731 40.5861 157.129 40.6998 157.581 40.6998M165.981 32.7549L168.818 39.6225L171.427 32.7549H173.869L167.911 47.3968H165.526L167.627 42.3456L163.539 32.7549H165.981Z" fill="white"/>
<path d="M108.73 28.6645V45.6345H102.601L98.403 31.6719H98.2893L98.5167 45.6345H94.3154V28.6645H100.671L104.645 42.1154H104.702L104.475 28.6645H108.73Z" fill="#1E4BC6"/>
<path d="M20.5342 45.805L23.7121 28.6645H31.3188L34.4967 45.805H29.8975L27.5723 30.1967H27.5154L25.1306 45.805H20.5342Z" fill="#1E4BC6"/>
<path d="M56.629 28.6645L57.0269 45.805H52.7148L52.6011 30.3672H52.4874L49.6505 45.805H45.2787L42.4419 30.3672H42.3282L42.2145 45.805H37.9023L38.2975 28.6645H45.3356L47.4362 41.7743H47.4931L49.6505 28.6645H56.629Z" fill="#1E4BC6"/>
<path d="M83.4766 43.1956C84.6676 43.1956 85.0656 42.3997 85.1225 41.9478C85.1793 41.7772 85.1793 41.493 85.1793 41.2684V28.6674H89.5483V40.9841C89.5483 41.3252 89.4914 41.9478 89.4914 42.1183C89.2072 45.2963 86.6546 46.3736 83.4738 46.3736C80.293 46.3736 77.7972 45.3503 77.5158 42.1183C77.5158 41.9478 77.459 41.3224 77.459 40.9841V28.6674H81.828V41.3793C81.828 41.6067 81.828 41.8341 81.8848 42.0615C81.9417 42.4026 82.2828 43.1956 83.4738 43.1956" fill="#1E4BC6"/>
<path d="M13.2691 40.9245C13.4397 41.3224 13.3828 41.8881 13.3259 42.1723C13.1554 42.7408 12.8143 43.3065 11.6233 43.3065C10.546 43.3065 9.92059 42.6811 9.92059 41.7744V40.1285H5.32422V41.4333C5.32422 45.2934 8.33162 46.4276 11.5664 46.4276C14.8012 46.4276 17.243 45.3503 17.6381 42.5106C17.8655 41.0353 17.6949 40.0717 17.6381 39.6737C16.899 36.0978 10.3726 35.0205 9.92059 32.9767C9.86374 32.6356 9.86374 32.2945 9.92059 32.07C10.0343 31.5015 10.4323 30.9358 11.5096 30.9358C12.53 30.9358 13.0985 31.5612 13.0985 32.4679V33.5452H17.3538V32.3542C17.3538 28.6078 14.0053 28.0421 11.5636 28.0421C8.49933 28.0421 6.00074 29.0626 5.54878 31.8454C5.43508 32.5845 5.43508 33.2638 5.60563 34.1734C6.28784 37.7465 12.4163 38.713 13.2663 40.9273" fill="#1E4BC6"/>
<path d="M69.0597 40.9244C69.2302 41.3223 69.1734 41.8311 69.1165 42.1722C69.0028 42.7407 68.6049 43.3064 67.4707 43.3064C66.3365 43.3064 65.768 42.6811 65.768 41.7743V40.1285H61.2285V41.4332C61.2285 45.2365 64.2359 46.3707 67.4139 46.3707C70.5918 46.3707 73.0336 45.3473 73.4287 42.5105C73.6561 41.0352 73.4855 40.0716 73.4287 39.7305C72.6896 36.1546 66.2769 35.1341 65.8249 33.1472C65.7112 32.8061 65.768 32.465 65.8249 32.2404C65.9386 31.6719 66.3365 31.1063 67.357 31.1063C68.3775 31.1063 68.946 31.7316 68.946 32.6384V33.7157H73.2013V32.5247C73.2013 28.8351 69.8528 28.2694 67.4679 28.2694C64.4605 28.2694 61.9619 29.233 61.5099 32.0159C61.3962 32.7549 61.3394 33.4343 61.5668 34.2871C62.1893 37.7493 68.2069 38.7129 69.0569 40.9272" fill="#1E4BC6"/>
<path d="M119.287 43.0221C120.535 43.0221 120.933 42.2262 121.047 41.7743C121.104 41.6037 121.104 41.3194 121.104 41.1489V38.6531H119.344V36.1546H125.416V40.7509C125.416 41.092 125.416 41.3194 125.359 41.8851C125.075 45.0062 122.352 46.1404 119.287 46.1404C116.223 46.1404 113.554 45.0062 113.27 41.8851C113.213 41.3166 113.213 41.0892 113.213 40.7509V33.5423C113.213 33.258 113.27 32.6924 113.27 32.4081C113.668 29.1733 116.22 28.1528 119.287 28.1528C122.354 28.1528 125.021 29.1733 125.302 32.4081C125.359 32.9198 125.359 33.5423 125.359 33.5423V34.1108H121.047V33.1472C121.047 33.1472 121.047 32.7492 120.99 32.465C120.933 32.067 120.592 31.2171 119.287 31.2171C117.983 31.2171 117.698 32.067 117.585 32.465C117.528 32.6924 117.528 32.9766 117.528 33.2609V41.092C117.528 41.3194 117.528 41.5468 117.585 41.7174C117.585 42.2859 118.04 43.0221 119.287 43.0221Z" fill="#1E4BC6"/>
</svg>
