<svg width="54" height="54" viewBox="0 0 54 54" fill="none" xmlns="http://www.w3.org/2000/svg">
<path d="M6.75 31.5V22.5C6.75 14.0152 6.75 9.77175 9.387 7.137C12.024 4.50225 16.2653 4.5 24.75 4.5H29.25C37.7347 4.5 41.9782 4.5 44.613 7.137C47.2477 9.774 47.25 14.0152 47.25 22.5V31.5C47.25 39.9847 47.25 44.2282 44.613 46.863C41.976 49.4977 37.7347 49.5 29.25 49.5H24.75C16.2653 49.5 12.0217 49.5 9.387 46.863C6.75225 44.226 6.75 39.9847 6.75 31.5Z" stroke="white" stroke-width="2.5" stroke-linecap="round" stroke-linejoin="round"/>
<path d="M25.4993 24.0007C27.873 26.3745 31.0005 28.7865 31.0005 28.7865L35.2845 24.5002C35.2845 24.5002 32.8725 21.3728 30.501 18.999C28.125 16.6275 24.9975 14.2132 24.9975 14.2132L20.7135 18.4995C20.7135 18.4995 23.1255 21.627 25.4993 24.0007ZM25.4993 24.0007L18 31.5M36 23.7848L30.285 29.4998M25.7175 13.5L20.0025 19.215M18 40.5H36" stroke="white" stroke-width="2.5" stroke-linecap="round" stroke-linejoin="round"/>
</svg>
