<svg width="46" height="46" viewBox="0 0 46 46" fill="none" xmlns="http://www.w3.org/2000/svg">
<path fill-rule="evenodd" clip-rule="evenodd" d="M23 11.5C23.3812 11.5 23.7469 11.6515 24.0165 11.921C24.2861 12.1906 24.4375 12.5563 24.4375 12.9375V14.7602L26.0159 13.8489C26.1794 13.753 26.3603 13.6904 26.5481 13.6647C26.736 13.6391 26.927 13.6508 27.1103 13.6992C27.2936 13.7477 27.4655 13.8319 27.6161 13.9471C27.7667 14.0622 27.893 14.206 27.9878 14.3702C28.0826 14.5344 28.144 14.7157 28.1684 14.9037C28.1928 15.0917 28.1798 15.2827 28.1302 15.4656C28.0805 15.6486 27.9951 15.8199 27.879 15.9697C27.7628 16.1196 27.6182 16.2449 27.4534 16.3386L25.875 17.25L27.4534 18.1614C27.6182 18.2551 27.7628 18.3804 27.879 18.5303C27.9951 18.6801 28.0805 18.8514 28.1302 19.0344C28.1798 19.2173 28.1928 19.4083 28.1684 19.5963C28.144 19.7843 28.0826 19.9656 27.9878 20.1298C27.893 20.294 27.7667 20.4378 27.6161 20.5529C27.4655 20.6681 27.2936 20.7523 27.1103 20.8008C26.927 20.8492 26.736 20.8609 26.5481 20.8353C26.3603 20.8096 26.1794 20.747 26.0159 20.6511L24.4375 19.7398V21.5625C24.4375 21.9437 24.2861 22.3094 24.0165 22.579C23.7469 22.8485 23.3812 23 23 23C22.6188 23 22.2531 22.8485 21.9835 22.579C21.714 22.3094 21.5625 21.9437 21.5625 21.5625V19.7398L19.9841 20.6511C19.8206 20.747 19.6397 20.8096 19.4519 20.8353C19.264 20.8609 19.073 20.8492 18.8897 20.8008C18.7064 20.7523 18.5345 20.6681 18.3839 20.5529C18.2333 20.4378 18.107 20.294 18.0122 20.1298C17.9174 19.9656 17.856 19.7843 17.8316 19.5963C17.8072 19.4083 17.8202 19.2173 17.8698 19.0344C17.9195 18.8514 18.0049 18.6801 18.121 18.5303C18.2372 18.3804 18.3818 18.2551 18.5466 18.1614L20.125 17.25L18.5466 16.3386C18.2192 16.1466 17.9809 15.8329 17.8839 15.4659C17.7869 15.099 17.8389 14.7085 18.0287 14.3798C18.2185 14.051 18.5307 13.8107 18.897 13.7112C19.2633 13.6118 19.6541 13.6613 19.9841 13.8489L21.5625 14.7602V12.9375C21.5625 12.5563 21.714 12.1906 21.9835 11.921C22.2531 11.6515 22.6188 11.5 23 11.5ZM14.375 27.3125C14.375 26.9313 14.5265 26.5656 14.796 26.296C15.0656 26.0264 15.4313 25.875 15.8125 25.875H30.1875C30.5687 25.875 30.9344 26.0264 31.204 26.296C31.4736 26.5656 31.625 26.9313 31.625 27.3125C31.625 27.6937 31.4736 28.0594 31.204 28.329C30.9344 28.5986 30.5687 28.75 30.1875 28.75H15.8125C15.4313 28.75 15.0656 28.5986 14.796 28.329C14.5265 28.0594 14.375 27.6937 14.375 27.3125ZM14.375 33.0625C14.375 32.6813 14.5265 32.3156 14.796 32.046C15.0656 31.7764 15.4313 31.625 15.8125 31.625H30.1875C30.5687 31.625 30.9344 31.7764 31.204 32.046C31.4736 32.3156 31.625 32.6813 31.625 33.0625C31.625 33.4437 31.4736 33.8094 31.204 34.079C30.9344 34.3486 30.5687 34.5 30.1875 34.5H15.8125C15.4313 34.5 15.0656 34.3486 14.796 34.079C14.5265 33.8094 14.375 33.4437 14.375 33.0625Z" fill="white"/>
<path d="M8.625 0H37.375C38.9 0 40.3625 0.605802 41.4409 1.68414C42.5192 2.76247 43.125 4.22501 43.125 5.75V40.25C43.125 41.775 42.5192 43.2375 41.4409 44.3159C40.3625 45.3942 38.9 46 37.375 46H8.625C7.10001 46 5.63747 45.3942 4.55914 44.3159C3.4808 43.2375 2.875 41.775 2.875 40.25V37.375H5.75V40.25C5.75 41.0125 6.0529 41.7438 6.59207 42.2829C7.13124 42.8221 7.8625 43.125 8.625 43.125H37.375C38.1375 43.125 38.8688 42.8221 39.4079 42.2829C39.9471 41.7438 40.25 41.0125 40.25 40.25V5.75C40.25 4.9875 39.9471 4.25624 39.4079 3.71707C38.8688 3.1779 38.1375 2.875 37.375 2.875H8.625C7.8625 2.875 7.13124 3.1779 6.59207 3.71707C6.0529 4.25624 5.75 4.9875 5.75 5.75V8.625H2.875V5.75C2.875 4.22501 3.4808 2.76247 4.55914 1.68414C5.63747 0.605802 7.10001 0 8.625 0Z" fill="white"/>
<path d="M2.875 14.375V12.9375C2.875 12.5563 3.02645 12.1906 3.29603 11.921C3.56562 11.6515 3.93125 11.5 4.3125 11.5C4.69375 11.5 5.05938 11.6515 5.32897 11.921C5.59855 12.1906 5.75 12.5563 5.75 12.9375V14.375H7.1875C7.56875 14.375 7.93438 14.5265 8.20397 14.796C8.47355 15.0656 8.625 15.4313 8.625 15.8125C8.625 16.1937 8.47355 16.5594 8.20397 16.829C7.93438 17.0985 7.56875 17.25 7.1875 17.25H1.4375C1.05625 17.25 0.690618 17.0985 0.421034 16.829C0.15145 16.5594 0 16.1937 0 15.8125C0 15.4313 0.15145 15.0656 0.421034 14.796C0.690618 14.5265 1.05625 14.375 1.4375 14.375H2.875ZM2.875 23V21.5625C2.875 21.1813 3.02645 20.8156 3.29603 20.546C3.56562 20.2765 3.93125 20.125 4.3125 20.125C4.69375 20.125 5.05938 20.2765 5.32897 20.546C5.59855 20.8156 5.75 21.1813 5.75 21.5625V23H7.1875C7.56875 23 7.93438 23.1514 8.20397 23.421C8.47355 23.6906 8.625 24.0563 8.625 24.4375C8.625 24.8187 8.47355 25.1844 8.20397 25.454C7.93438 25.7236 7.56875 25.875 7.1875 25.875H1.4375C1.05625 25.875 0.690618 25.7236 0.421034 25.454C0.15145 25.1844 0 24.8187 0 24.4375C0 24.0563 0.15145 23.6906 0.421034 23.421C0.690618 23.1514 1.05625 23 1.4375 23H2.875ZM2.875 31.625V30.1875C2.875 29.8063 3.02645 29.4406 3.29603 29.171C3.56562 28.9014 3.93125 28.75 4.3125 28.75C4.69375 28.75 5.05938 28.9014 5.32897 29.171C5.59855 29.4406 5.75 29.8063 5.75 30.1875V31.625H7.1875C7.56875 31.625 7.93438 31.7764 8.20397 32.046C8.47355 32.3156 8.625 32.6813 8.625 33.0625C8.625 33.4437 8.47355 33.8094 8.20397 34.079C7.93438 34.3486 7.56875 34.5 7.1875 34.5H1.4375C1.05625 34.5 0.690618 34.3486 0.421034 34.079C0.15145 33.8094 0 33.4437 0 33.0625C0 32.6813 0.15145 32.3156 0.421034 32.046C0.690618 31.7764 1.05625 31.625 1.4375 31.625H2.875Z" fill="white"/>
</svg>
