<svg width="58" height="58" viewBox="0 0 58 58" fill="none" xmlns="http://www.w3.org/2000/svg">
<path d="M12.3486 4.36087L9.79656 6.90925L13.5938 10.7046L16.1421 8.15625L12.3486 4.36087ZM45.6532 4.36087L41.8561 8.15625L44.4062 10.7046L48.2016 6.91106L45.6532 4.36087ZM29 5.49187C28.4019 5.49912 27.7965 5.53356 27.1875 5.60787C27.1694 5.60787 27.1513 5.60425 27.1331 5.60787C19.7816 6.45068 13.9309 12.3902 12.9141 19.7091C12.1021 25.5997 14.5308 30.9412 18.5781 34.3813C20.2337 35.7942 21.3535 37.7331 21.75 39.8732V50.7482H25.8825C26.5133 51.8302 27.6642 52.5607 29 52.5607C30.3358 52.5607 31.4867 51.8302 32.1175 50.7482H36.25V43.4982H36.4204V41.3449C36.4204 38.6878 37.8015 36.0089 40.0454 33.9264C43.0469 30.9212 45.3125 26.6528 45.3125 21.75C45.3125 12.7962 37.9429 5.4085 29 5.49187ZM29 9.11687C36.0053 9.019 41.6875 14.7537 41.6875 21.75C41.6875 25.5454 39.9294 28.8876 37.4952 31.32L37.5532 31.378C35.1342 33.6086 33.57 36.6139 33.1307 39.875H25.2028C24.8041 36.7684 23.4719 33.7614 20.9543 31.6046C17.7516 28.8858 15.8431 24.7896 16.4811 20.1641C17.2731 14.4547 21.9059 9.86362 27.5826 9.23468C28.0513 9.16934 28.5233 9.13061 28.9964 9.11868L29 9.11687ZM3.625 21.75V25.375H9.0625V21.75H3.625ZM48.9375 21.75V25.375H54.375V21.75H48.9375ZM13.5938 36.4204L9.79838 40.2139L12.3486 42.7641L16.1403 38.9687L13.5938 36.4204ZM44.4062 36.4204L41.8579 38.9687L45.6514 42.7641L48.2016 40.2139L44.4062 36.4204ZM25.375 43.5H32.625V47.125H25.375V43.5Z" fill="white"/>
</svg>
