<svg width="57" height="57" viewBox="0 0 57 57" fill="none" xmlns="http://www.w3.org/2000/svg">
<path d="M22.2894 19.9144V17.5394H41.8356V19.9144H22.2894ZM22.2894 26.4908V24.1158H41.8356V26.4908H22.2894ZM28.1342 49.875H14.25C12.9105 49.875 11.784 49.4182 10.8704 48.5046C9.95679 47.591 9.5 46.4645 9.5 45.125V38.5462H16.625V7.125H47.5V25.8638C47.0725 25.8764 46.6664 25.9215 46.2816 25.9991C45.8969 26.0783 45.5113 26.1891 45.125 26.3316V9.5H19V38.5462H31.6967L29.3217 40.9212H11.875V45.125C11.875 45.7979 12.103 46.3624 12.559 46.8184C13.015 47.2744 13.5787 47.5016 14.25 47.5H28.1342V49.875ZM33.7986 49.875V44.6263L46.4645 32.0221C46.6988 31.7878 46.9419 31.6295 47.1936 31.5471C47.447 31.4648 47.7003 31.4236 47.9536 31.4236C48.2149 31.4236 48.4793 31.4743 48.7469 31.5756C49.016 31.6785 49.252 31.8321 49.4546 32.0364L51.6515 34.2784C51.8462 34.5127 51.9943 34.7565 52.0956 35.0099C52.1985 35.2616 52.25 35.5142 52.25 35.7675C52.25 36.0208 52.2017 36.2757 52.1051 36.5322C52.0085 36.7887 51.8573 37.0342 51.6515 37.2685L39.045 49.875H33.7986ZM35.9005 47.7755H38.1567L46.3909 39.5247L45.2746 38.3966L44.194 37.2376L35.9005 45.5169V47.7755ZM45.2746 38.3966L44.194 37.2376L46.3909 39.5247L45.2746 38.3966Z" fill="white"/>
</svg>
