<svg width="50" height="50" viewBox="0 0 50 50" fill="none" xmlns="http://www.w3.org/2000/svg">
<path d="M28.2824 44.7325C27.2124 44.9092 26.1182 44.9983 24.9999 45C21.009 45.0001 17.1093 43.8062 13.8025 41.5719C10.4957 39.3376 7.93291 36.165 6.44383 32.4624C4.95476 28.7597 4.60749 24.6961 5.44668 20.7945C6.28587 16.8928 8.27315 13.3314 11.1529 10.5684C14.0327 7.80539 17.6732 5.96709 21.6062 5.28998C25.5393 4.61286 29.5849 5.12789 33.2229 6.76882C36.8608 8.40974 39.9246 11.1015 42.0203 14.4979C44.1159 17.8943 45.1475 21.84 44.9824 25.8275C44.3291 24.8512 43.4557 24.0419 42.4324 23.465C42.2916 21.8508 41.9273 20.264 41.3499 18.75H34.5174C34.7599 20.27 34.9174 21.8675 34.9749 23.5175C33.9749 24.1 33.1249 24.9075 32.4899 25.8675C32.4966 25.5808 32.4999 25.2917 32.4999 25C32.4999 22.7925 32.3174 20.6875 31.9849 18.75H18.0149C17.669 20.8153 17.4968 22.906 17.4999 25C17.4999 27.2075 17.6824 29.3125 18.0149 31.25H31.3524C31.5024 32.1475 31.8149 32.99 32.2524 33.75H18.5499C18.9324 35.225 19.4049 36.565 19.9499 37.73C21.4799 41.025 23.3549 42.5 24.9999 42.5C25.7999 42.5 26.6574 42.15 27.4999 41.4075C27.5249 42.54 27.7749 43.675 28.2824 44.7325ZM30.0549 12.27C28.5174 8.97501 26.6424 7.50001 24.9999 7.50001C23.3574 7.50001 21.4824 8.97501 19.9449 12.27C19.3603 13.5517 18.8934 14.8838 18.5499 16.25H31.4549C31.1098 14.8837 30.6412 13.5515 30.0549 12.27ZM15.9724 16.25C16.4124 14.3925 16.9899 12.695 17.6799 11.2125C18.1449 10.215 18.6824 9.28001 19.2849 8.45501C15.3027 9.83499 11.9501 12.6019 9.83989 16.25H15.9724ZM14.9999 25C14.9999 22.825 15.1674 20.72 15.4824 18.75H8.64989C7.88833 20.7457 7.49857 22.864 7.49989 25C7.49989 27.2 7.90739 29.31 8.64989 31.25H15.4824C15.1583 29.1825 14.997 27.0928 14.9999 25ZM17.6799 38.7875C16.9416 37.1705 16.3695 35.4827 15.9724 33.75H9.83989C11.9501 37.3981 15.3027 40.165 19.2849 41.545C18.6621 40.6799 18.1246 39.7564 17.6799 38.7875ZM40.1599 16.25C38.0496 12.6019 34.6971 9.83499 30.7149 8.45501C31.3174 9.28001 31.8549 10.215 32.3199 11.2125C33.0099 12.695 33.5874 14.3925 34.0274 16.25H40.1599ZM43.7499 30C43.7499 31.3261 43.2231 32.5979 42.2854 33.5355C41.3477 34.4732 40.076 35 38.7499 35C37.4238 35 36.152 34.4732 35.2144 33.5355C34.2767 32.5979 33.7499 31.3261 33.7499 30C33.7499 28.6739 34.2767 27.4022 35.2144 26.4645C36.152 25.5268 37.4238 25 38.7499 25C40.076 25 41.3477 25.5268 42.2854 26.4645C43.2231 27.4022 43.7499 28.6739 43.7499 30ZM47.4999 41.25C47.4999 44.3625 44.9999 47.5 38.7499 47.5C32.4999 47.5 29.9999 44.375 29.9999 41.25C29.9999 40.2554 30.395 39.3016 31.0982 38.5984C31.8015 37.8951 32.7553 37.5 33.7499 37.5H43.7499C44.7445 37.5 45.6983 37.8951 46.4015 38.5984C47.1048 39.3016 47.4999 40.2554 47.4999 41.25Z" fill="white"/>
</svg>
