<svg width="54" height="54" viewBox="0 0 54 54" fill="none" xmlns="http://www.w3.org/2000/svg">
<path d="M27.6299 24.465C25.9428 24.4472 24.2987 23.9307 22.9046 22.9805C21.5104 22.0303 20.4286 20.6888 19.7952 19.1251C19.1619 17.5613 19.0053 15.8451 19.3453 14.1925C19.6853 12.5399 20.5067 11.0249 21.7059 9.83813C22.9051 8.65138 24.4287 7.84597 26.0847 7.52329C27.7408 7.20062 29.4552 7.37511 31.0123 8.0248C32.5694 8.67449 33.8994 9.77033 34.835 11.1744C35.7706 12.5784 36.2698 14.2278 36.2699 15.915C36.2541 18.1933 35.3358 20.3724 33.7164 21.975C32.0969 23.5776 29.9083 24.473 27.6299 24.465ZM27.6299 10.365C26.5362 10.3827 25.4722 10.7232 24.5714 11.3438C23.6706 11.9643 22.9733 12.8372 22.567 13.8527C22.1607 14.8683 22.0636 15.9813 22.2878 17.0519C22.512 18.1225 23.0475 19.1029 23.8272 19.8701C24.6068 20.6373 25.5958 21.1571 26.6698 21.364C27.7439 21.571 28.8552 21.4559 29.8641 21.0334C30.873 20.6108 31.7345 19.8995 32.3405 18.9888C32.9464 18.0782 33.2698 17.0088 33.2699 15.915C33.2541 14.4323 32.6519 13.0163 31.5951 11.9763C30.5382 10.9363 29.1126 10.357 27.6299 10.365Z" fill="white"/>
<path d="M27.6302 24.465C25.9431 24.4472 24.299 23.9307 22.9048 22.9805C21.5107 22.0303 20.4288 20.6888 19.7955 19.1251C19.1621 17.5613 19.0056 15.8451 19.3456 14.1925C19.6856 12.5399 20.5069 11.0249 21.7062 9.83813C22.9054 8.65138 24.429 7.84597 26.085 7.52329C27.741 7.20062 29.4555 7.37511 31.0126 8.0248C32.5697 8.67449 33.8997 9.77033 34.8353 11.1744C35.7708 12.5784 36.2701 14.2278 36.2702 15.915C36.2543 18.1933 35.3361 20.3724 33.7166 21.975C32.0972 23.5776 29.9085 24.473 27.6302 24.465ZM27.6302 10.365C26.5365 10.3827 25.4725 10.7232 24.5717 11.3438C23.6709 11.9643 22.9736 12.8372 22.5673 13.8527C22.161 14.8683 22.0638 15.9813 22.288 17.0519C22.5122 18.1225 23.0478 19.1029 23.8274 19.8701C24.6071 20.6373 25.5961 21.1571 26.6701 21.364C27.7442 21.571 28.8555 21.4559 29.8644 21.0334C30.8732 20.6108 31.7348 19.8995 32.3407 18.9888C32.9467 18.0782 33.2701 17.0088 33.2702 15.915C33.2544 14.4323 32.6522 13.0163 31.5954 11.9763C30.5385 10.9363 29.1129 10.357 27.6302 10.365ZM32.8652 26.475C26.212 25.3173 19.3627 26.371 13.3652 29.475C12.9395 29.7114 12.5869 30.0603 12.3462 30.4836C12.1054 30.9069 11.9857 31.3882 12.0002 31.875V37.215C12.0002 37.6128 12.1582 37.9944 12.4395 38.2757C12.7208 38.557 13.1024 38.715 13.5002 38.715C13.898 38.715 14.2795 38.557 14.5609 38.2757C14.8422 37.9944 15.0002 37.6128 15.0002 37.215V32.07C20.5617 29.2794 26.8862 28.394 33.0002 29.55L32.8652 26.475Z" fill="white"/>
<path d="M49.5 33H39.45V30.78C39.45 30.3822 39.292 30.0006 39.0107 29.7193C38.7294 29.438 38.3478 29.28 37.95 29.28C37.5522 29.28 37.1706 29.438 36.8893 29.7193C36.608 30.0006 36.45 30.3822 36.45 30.78V33H25.5C25.1022 33 24.7206 33.158 24.4393 33.4393C24.158 33.7206 24 34.1022 24 34.5V49.5C24 49.8978 24.158 50.2794 24.4393 50.5607C24.7206 50.842 25.1022 51 25.5 51H49.5C49.8978 51 50.2794 50.842 50.5607 50.5607C50.842 50.2794 51 49.8978 51 49.5V34.5C51 34.1022 50.842 33.7206 50.5607 33.4393C50.2794 33.158 49.8978 33 49.5 33ZM48 48H27V36H36.45V36.615C36.45 37.0128 36.608 37.3944 36.8893 37.6757C37.1706 37.957 37.5522 38.115 37.95 38.115C38.3478 38.115 38.7294 37.957 39.0107 37.6757C39.292 37.3944 39.45 37.0128 39.45 36.615V36H48V48Z" fill="white"/>
<path d="M32.715 41.13H41.655V43.23H32.715V41.13ZM16.26 18.36C12.1072 18.4295 8.02634 19.4561 4.335 21.36C3.93354 21.572 3.59727 21.8892 3.36212 22.2776C3.12698 22.666 3.00181 23.111 3 23.565V28.215C3 28.6128 3.15804 28.9944 3.43934 29.2757C3.72064 29.557 4.10218 29.715 4.5 29.715C4.89782 29.715 5.27936 29.557 5.56066 29.2757C5.84196 28.9944 6 28.6128 6 28.215V23.865C9.52695 22.1094 13.4318 21.2491 17.37 21.36C16.8551 20.4197 16.4812 19.4089 16.26 18.36ZM49.665 21.345C46.3543 19.6083 42.7158 18.5863 38.985 18.345C38.7645 19.392 38.3958 20.4022 37.89 21.345C41.4045 21.4296 44.8569 22.2901 48 23.865V28.215C48 28.6128 48.158 28.9944 48.4393 29.2757C48.7206 29.557 49.1022 29.715 49.5 29.715C49.8978 29.715 50.2794 29.557 50.5607 29.2757C50.842 28.9944 51 28.6128 51 28.215V23.565C51.0009 23.1084 50.877 22.6603 50.6417 22.269C50.4065 21.8778 50.0687 21.5582 49.665 21.345ZM15.99 15.915V14.91C14.8149 14.7527 13.7458 14.1483 13.0051 13.2226C12.2644 12.2969 11.9093 11.1212 12.0137 9.94028C12.1181 8.75933 12.6739 7.66413 13.5654 6.88268C14.457 6.10122 15.6156 5.69372 16.8 5.74499C18.032 5.74276 19.2161 6.2218 20.1 7.07999C20.8802 6.43726 21.7367 5.89316 22.65 5.45999C21.6294 4.28648 20.2772 3.44975 18.7716 3.0601C17.266 2.67045 15.6776 2.74616 14.2159 3.27725C12.7541 3.80835 11.4876 4.7699 10.5833 6.03517C9.67896 7.30045 9.17924 8.81004 9.15 10.365C9.18148 12.2681 9.9213 14.0912 11.225 15.478C12.5286 16.8649 14.3025 17.716 16.2 17.865C16.0726 17.2225 16.0023 16.5699 15.99 15.915ZM37.155 2.74499C36.1242 2.74522 35.1038 2.95095 34.1534 3.35016C33.203 3.74937 32.3418 4.33404 31.62 5.06999C32.6331 5.43966 33.5917 5.9442 34.47 6.56999C35.1703 6.08389 35.9893 5.79694 36.8399 5.73976C37.6904 5.68257 38.5405 5.85729 39.2996 6.24528C40.0586 6.63327 40.6981 7.21998 41.1499 7.94286C41.6017 8.66575 41.8489 9.49769 41.865 10.35C41.8556 11.2255 41.5984 12.0803 41.1232 12.8157C40.648 13.551 39.9743 14.1367 39.18 14.505C39.241 14.9675 39.271 15.4335 39.27 15.9C39.2653 16.5029 39.2151 17.1046 39.12 17.7C40.7541 17.2799 42.2035 16.3314 43.2425 15.002C44.2815 13.6727 44.852 12.0372 44.865 10.35C44.8452 8.32095 44.0232 6.3822 42.5786 4.95725C41.134 3.5323 39.1841 2.73697 37.155 2.74499Z" fill="white"/>
</svg>
