<svg width="68" height="68" viewBox="0 0 68 68" fill="none" xmlns="http://www.w3.org/2000/svg">
<path d="M60.2082 20.6338L33.9998 7.79167L7.7915 20.6338M60.2082 20.6338V27.268H7.7915V20.6338M60.2082 20.6338H43.6969M7.7915 20.6338H24.3028M7.7915 52.9578H60.2082V60.2083H7.7915V52.9578Z" stroke="white" stroke-width="2" stroke-linecap="round" stroke-linejoin="round"/>
<path d="M34 21.6906C36.1094 21.6906 37.8193 19.9806 37.8193 17.8712C37.8193 15.7619 36.1094 14.0519 34 14.0519C31.8906 14.0519 30.1807 15.7619 30.1807 17.8712C30.1807 19.9806 31.8906 21.6906 34 21.6906Z" stroke="white" stroke-width="2" stroke-linecap="round" stroke-linejoin="round"/>
<path d="M25.7295 27.268V52.9578M19.7625 27.268V52.9578M13.7969 27.268V52.9578M42.2705 52.9578V27.268M48.2375 52.9578V27.268M54.203 52.9578V27.268" stroke="white" stroke-width="2" stroke-linecap="round" stroke-linejoin="round"/>
</svg>
