<svg width="54" height="54" viewBox="0 0 54 54" fill="none" xmlns="http://www.w3.org/2000/svg">
<path d="M10.386 45C9.3495 45 8.48475 44.6535 7.79175 43.9605C7.09875 43.2675 6.7515 42.402 6.75 41.364V19.386C6.75 18.3495 7.09725 17.4848 7.79175 16.7918C8.48625 16.0988 9.35025 15.7515 10.3837 15.75H20.25V12.6338C20.25 11.5988 20.5973 10.734 21.2918 10.0395C21.9863 9.345 22.851 8.9985 23.886 9H30.1163C31.1513 9 32.016 9.3465 32.7105 10.0395C33.405 10.7325 33.7515 11.5973 33.75 12.6338V15.75H43.6162C44.6512 15.75 45.5153 16.0973 46.2083 16.7918C46.9013 17.4863 47.2485 18.351 47.25 19.386V41.3663C47.25 42.4013 46.9028 43.266 46.2083 43.9605C45.5138 44.655 44.6497 45.0015 43.6162 45H10.386ZM22.5 15.75H31.5V12.6338C31.5 12.2888 31.356 11.9715 31.068 11.682C30.78 11.3925 30.4628 11.2485 30.1163 11.25H23.8837C23.5387 11.25 23.2215 11.394 22.932 11.682C22.6425 11.97 22.4985 12.2873 22.5 12.6338V15.75ZM45 32.625H31.5V36H22.5V32.625H9V41.3663C9 41.7113 9.144 42.0285 9.432 42.318C9.72 42.6075 10.0372 42.7515 10.3837 42.75H43.6162C43.9613 42.75 44.2785 42.606 44.568 42.318C44.8575 42.03 45.0015 41.712 45 41.364V32.625ZM24.75 33.75H29.25V29.25H24.75V33.75ZM9 30.375H22.5V27H31.5V30.375H45V19.386C45 19.0395 44.856 18.7215 44.568 18.432C44.28 18.1425 43.9627 17.9985 43.6162 18H10.3837C10.0387 18 9.7215 18.144 9.432 18.432C9.1425 18.72 8.9985 19.038 9 19.386V30.375Z" fill="white"/>
</svg>
