<svg width="186" height="75" viewBox="0 0 186 75" fill="none" xmlns="http://www.w3.org/2000/svg">
<path d="M126.951 22.0012L136.769 20.2426V57.9329H126.951V22.0012ZM141.285 22.0012V57.9329H151.109V20.2426L141.285 22.0012ZM112.966 57.9329H122.789V30.3676H112.966V57.9329ZM48.0585 34.2646C46.815 34.1813 43.943 33.9992 43.943 31.4082C43.943 28.2864 48.0793 28.2864 49.635 28.2864C52.3666 28.2864 55.8994 29.0928 58.4228 29.8473C58.4228 29.8473 59.8329 30.3415 61.0295 30.8514L61.1388 30.8827V22.3342L60.9879 22.2873C58.0118 21.2467 54.5466 20.2426 48.1262 20.2426C37.049 20.2426 33.126 26.6943 33.126 32.2198C33.126 35.404 34.4892 42.9015 47.1688 43.7652C48.2458 43.8329 51.0971 43.9942 51.0971 46.6685C51.0971 48.8745 48.7609 50.1805 44.8327 50.1805C40.5298 50.1805 36.3518 49.0827 33.8128 48.0421V56.8507C37.6109 57.8445 41.8878 58.344 46.9087 58.344C57.7361 58.344 62.5852 52.2409 62.5852 46.195C62.5852 39.3375 57.1585 34.8837 48.0585 34.2698V34.2646ZM107.435 29.9617C98.3557 30.2531 93.751 34.327 93.751 42.4229V57.9329H103.658V45.2845C103.658 40.4353 104.292 38.3593 110.047 38.1616V30.1074C109.079 29.8993 107.44 29.9669 107.44 29.9669L107.435 29.9617ZM80.7904 30.3363C80.5719 30.8879 79.0006 35.326 75.1972 39.9306V20.2426L65.0618 22.2457V57.9329H75.1972V46.9026C78.1317 51.3043 79.5833 57.9329 79.5833 57.9329H91.7219C90.52 52.9433 85.2702 43.734 85.2702 43.734C89.9841 37.7558 92.0549 31.3873 92.3827 30.3311H80.7904V30.3363ZM117.882 27.7244C120.557 27.7244 122.726 25.56 122.726 22.8857C122.726 20.2114 120.557 18.0417 117.882 18.0417C115.208 18.0417 113.044 20.2114 113.044 22.8857C113.044 25.56 115.213 27.7244 117.882 27.7244Z" fill="#862165"/>
</svg>
