<svg width="186" height="75" viewBox="0 0 186 75" fill="none" xmlns="http://www.w3.org/2000/svg">
<path fill-rule="evenodd" clip-rule="evenodd" d="M55.3882 60.4501H42.5108L32.8543 22.5266C32.396 20.7821 31.4228 19.2399 29.9913 18.513C26.4187 16.6863 22.4821 15.2326 18.1875 14.4994V13.0393H38.932C41.795 13.0393 43.9423 15.2326 44.3002 17.7798L49.3105 45.1353L62.1817 13.0393H74.7012L55.3882 60.4501ZM81.8587 60.4501H69.697L79.7114 13.0393H91.873L81.8587 60.4501ZM107.607 26.1735C107.965 23.62 110.112 22.1599 112.618 22.1599C116.554 21.7933 120.843 22.5265 124.421 24.3469L126.569 14.1391C122.99 12.679 119.053 11.9458 115.481 11.9458C103.677 11.9458 95.0878 18.5129 95.0878 27.6272C95.0878 34.5609 101.172 38.2016 105.466 40.3949C110.112 42.5818 111.902 44.0418 111.544 46.2288C111.544 49.5092 107.965 50.9692 104.393 50.9692C100.098 50.9692 95.8035 49.8758 91.8731 48.0491L89.7259 58.2632C94.0204 60.0835 98.6666 60.8167 102.961 60.8167C116.196 61.177 124.421 54.6162 124.421 44.7687C124.421 32.3677 107.607 31.6408 107.607 26.1735ZM166.984 60.4501L157.327 13.0393H146.955C144.808 13.0393 142.661 14.4994 141.945 16.6863L124.063 60.4501H136.583L139.082 53.5228H154.464L155.896 60.4501H166.984ZM148.745 25.8071L152.317 43.6755H142.303L148.745 25.8071Z" fill="#172B85"/>
</svg>
