<svg width="187" height="75" viewBox="0 0 187 75" fill="none" xmlns="http://www.w3.org/2000/svg">
<path fill-rule="evenodd" clip-rule="evenodd" d="M181.973 57.7097H180.407V19.665H181.973V57.7097Z" fill="#231F20"/>
<path fill-rule="evenodd" clip-rule="evenodd" d="M163.031 57.5931H161.465V19.5484H163.031V57.5931Z" fill="#231F20"/>
<path fill-rule="evenodd" clip-rule="evenodd" d="M16.9236 36.5678L18.5004 25.5889L20.0991 36.5678H27.7843L31.5222 19.6226H25.5019L23.848 30.3366L22.2051 19.6226H14.8728L13.2189 30.0504L11.5981 19.6226H5.32422L9.10616 36.5678H16.9236Z" fill="#231F20"/>
<path fill-rule="evenodd" clip-rule="evenodd" d="M34.5322 36.5678H49.8474V32.1593H42.1292V30.1564H49.4064V25.8009H42.1292V23.9781H49.5938V19.6226H34.5322V36.5678Z" fill="#231F20"/>
<path fill-rule="evenodd" clip-rule="evenodd" d="M53.1334 31.1208C53.1113 31.3327 53.1113 31.5447 53.1113 31.7354C53.1113 34.9676 56.1545 36.854 61.8991 36.854C67.6437 36.854 70.6428 34.9146 70.6428 31.3327C70.6428 28.2489 68.8345 27.3269 64.3359 25.8751C61.9322 25.0909 60.5319 25.1332 60.5319 23.9569C60.5319 23.3211 60.9509 22.8548 61.9653 22.8548C63.1561 22.8548 63.7294 23.6072 63.6743 24.72H70.1797V24.0099C70.1797 21.0215 67.368 19.2093 62.1637 19.2093C56.4522 19.2093 53.4201 21.3394 53.4201 24.667C53.4201 27.0514 54.9527 28.429 58.1172 29.298C60.4326 29.9339 61.7558 30.4637 62.7591 30.8876C63.2884 31.1102 63.4648 31.6189 63.3876 32.0957C63.2884 32.7528 62.8694 33.1555 61.8329 33.1555C60.5539 33.1555 60.1901 32.4137 60.1901 31.2585V31.1208H53.1444H53.1334Z" fill="#231F20"/>
<path fill-rule="evenodd" clip-rule="evenodd" d="M89.3094 19.6226H72.5498V24.1477H77.2138V36.5678H84.6785V24.1477H89.3094V19.6226Z" fill="#231F20"/>
<path fill-rule="evenodd" clip-rule="evenodd" d="M92.5186 36.5678H107.834V32.1593H100.116V30.1564H107.327V25.8009H100.116V23.9781H107.58V19.6226H92.5186V36.5678Z" fill="#231F20"/>
<path fill-rule="evenodd" clip-rule="evenodd" d="M112.497 36.5678H119.83V30.5379C120.072 30.5167 120.315 30.5167 120.502 30.5167C122.266 30.5167 122.52 31.1314 122.807 32.9753L122.994 34.2258C123.104 34.9782 123.314 35.7624 123.568 36.5784H131.01C130.69 35.328 130.437 34.3212 130.338 33.5582L130.095 31.746C129.764 29.298 128.794 28.3761 126.82 27.9946C128.827 27.5177 130.338 26.0658 130.338 24.0311C130.338 20.64 128.11 19.6332 122.752 19.6332H112.486V36.5784L112.497 36.5678ZM119.83 26.3732V23.4165C120.16 23.3953 120.425 23.3953 120.668 23.3953C122.322 23.3953 123.049 23.7768 123.049 24.8365C123.049 25.8963 122.123 26.3943 120.37 26.3943C120.205 26.3943 120.017 26.3943 119.83 26.3732Z" fill="#231F20"/>
<path fill-rule="evenodd" clip-rule="evenodd" d="M140.46 26.903L144.396 36.5678H152.919V19.6226H147.164V28.2489L143.911 19.6226H134.693V36.5678H140.46V26.903Z" fill="#231F20"/>
<path fill-rule="evenodd" clip-rule="evenodd" d="M82.1211 47.1123L86.0574 56.7771H94.5806V39.8424H88.814V48.4687L85.5613 39.8424H76.3545V56.7771H82.1211V47.1123Z" fill="#231F20"/>
<path fill-rule="evenodd" clip-rule="evenodd" d="M140.636 47.1123L144.573 56.7771H153.096V39.8424H147.34V48.4687L144.088 39.8424H134.881V56.7771H140.636V47.1123Z" fill="#231F20"/>
<path fill-rule="evenodd" clip-rule="evenodd" d="M53.5413 39.8424V50.0477C53.5413 51.9977 53.6736 53.5343 55.2393 54.9967C56.8601 56.5015 59.2087 57.0738 62.5606 57.0738C68.7242 57.0738 71.613 54.8589 71.613 50.0477V39.8424H64.2917V50.3127C64.2917 51.7009 63.6412 52.4533 62.5606 52.4533C61.4249 52.4533 60.8295 51.7433 60.8295 50.3127V39.8424H53.5303H53.5413Z" fill="#231F20"/>
<path fill-rule="evenodd" clip-rule="evenodd" d="M106.886 39.8424H99.377V56.7771H106.886V39.8424Z" fill="#231F20"/>
<path fill-rule="evenodd" clip-rule="evenodd" d="M120.635 57.042C127.317 57.042 130.89 53.937 130.89 48.1826C130.89 42.4282 127.284 39.302 120.878 39.302C114.472 39.302 110.789 42.5236 110.789 48.2038C110.789 53.884 114.395 57.0314 120.635 57.0314V57.042ZM120.856 43.2442C122.587 43.2442 122.995 44.7172 122.995 47.9176C122.995 51.4996 122.554 53.1316 120.823 53.1316C119.092 53.1316 118.684 51.5314 118.684 48.2674C118.684 44.8444 119.07 43.2442 120.856 43.2442Z" fill="#231F20"/>
</svg>
